<svg width="300" height="97" viewBox="0 0 300 97" fill="none" xmlns="http://www.w3.org/2000/svg">
<g clip-path="url(#clip0_3_76)">
<path d="M80.9 68.3L66.9 50.2H67.2C74.1 50.2 79.8 44.6 79.8 37.6C79.8 30.6 74.2 25 67.2 25C60.3 25 54.6 30.6 54.6 37.6V48.3H34.5C34 48.3 33.6 48.7 33.6 49.2C33.6 49.7 34 50.1 34.5 50.1H54.6C54.1 60.8 45.3 69.3 34.5 69.3C23.4 69.3 14.4 60.3 14.4 49.2C14.4 38.1 23.4 29.1 34.5 29.1C36.6 29.1 38.4 29.5 39.6 29.8C40.1 29.9 40.6 29.7 40.7 29.2C40.8 28.7 40.6 28.2 40.1 28.1C38.2 27.6 36.3 27.3 34.5 27.3C22.4 27.3 12.5 37.2 12.5 49.3C12.5 61.4 22.4 71.3 34.5 71.3C46.3 71.3 56 61.9 56.5 50.3H64.6L79.5 69.6C79.7 69.8 80 70 80.2 70C80.4 70 80.6 69.9 80.8 69.8C81.2 69.3 81.3 68.8 80.9 68.3ZM56.5 37.6C56.5 31.7 61.3 26.9 67.2 26.9C73.1 26.9 77.9 31.7 77.9 37.6C77.9 43.5 73.1 48.3 67.2 48.3H56.5V37.6Z" fill="white"/>
<path d="M48.1 96.3C21.6 96.3 0 74.7 0 48.1C0 21.6 21.6 0 48.1 0C74.6 0 96.2 21.6 96.2 48.1C96.3 74.7 74.7 96.3 48.1 96.3ZM48.1 1.9C22.6 1.9 1.9 22.6 1.9 48.1C1.9 73.6 22.7 94.4 48.2 94.4C73.7 94.4 94.5 73.6 94.5 48.1C94.4 22.6 73.6 1.9 48.1 1.9Z" fill="white"/>
<path d="M126 19.5C127 19.5 127.9 19.6 128.7 19.9C129.5 20.2 130.2 20.5 130.8 20.9C131.4 21.3 131.8 21.7 132.2 22.2C132.5 22.7 132.7 23.1 132.7 23.5C132.7 23.6 132.6 23.7 132.5 23.8L129.9 25.1C129.8 25.1 129.8 25.1 129.7 25.1C129.6 25.1 129.5 25 129.4 24.9C128.9 24.3 128.5 23.8 128 23.3C127.5 22.9 126.9 22.6 126 22.6H124C123 22.6 122.1 22.9 121.4 23.6C120.7 24.3 120.4 25.1 120.4 26.2V38.6C120.4 39.6 120.7 40.5 121.4 41.2C122.1 41.9 122.9 42.2 124 42.2H125.2C126.2 42.2 127.1 41.9 127.8 41.2C128.5 40.5 128.8 39.7 128.8 38.6V36C128.8 35.7 128.7 35.6 128.4 35.6H124.4C124.1 35.6 124 35.5 124 35.2V32.8C124 32.5 124.1 32.4 124.4 32.4H132C132.3 32.4 132.4 32.5 132.4 32.8V38.6C132.4 39.6 132.2 40.5 131.9 41.4C131.6 42.2 131.1 43 130.4 43.6C129.8 44.2 129 44.7 128.1 45C127.2 45.3 126.2 45.5 125.1 45.5H124C122.9 45.5 121.9 45.3 121 45C120.1 44.7 119.4 44.2 118.7 43.6C118.1 43 117.6 42.3 117.2 41.4C116.9 40.6 116.7 39.6 116.7 38.6V26.3C116.7 25.3 116.9 24.4 117.2 23.5C117.5 22.7 118 21.9 118.7 21.3C119.3 20.7 120.1 20.2 121 19.9C121.9 19.6 122.9 19.4 124 19.4H126V19.5Z" fill="white"/>
<path d="M154.2 38.7C154.2 39.7 154 40.6 153.7 41.5C153.4 42.3 152.9 43.1 152.2 43.7C151.6 44.3 150.8 44.8 149.9 45.1C149 45.4 148 45.6 146.9 45.6H145.7C144.6 45.6 143.6 45.4 142.7 45.1C141.8 44.8 141.1 44.3 140.4 43.7C139.8 43.1 139.3 42.4 138.9 41.5C138.6 40.7 138.4 39.7 138.4 38.7V26.3C138.4 25.3 138.6 24.4 138.9 23.5C139.2 22.7 139.7 21.9 140.4 21.3C141 20.7 141.8 20.2 142.7 19.9C143.6 19.6 144.6 19.4 145.7 19.4H146.9C148 19.4 149 19.6 149.9 19.9C150.8 20.2 151.5 20.7 152.2 21.3C152.8 21.9 153.3 22.6 153.7 23.5C154 24.3 154.2 25.3 154.2 26.3V38.7ZM145.4 15C145.4 15.5 145.2 16 144.8 16.4C144.4 16.8 143.9 17 143.4 17C142.8 17 142.4 16.8 142 16.4C141.6 16 141.4 15.5 141.4 15C141.4 14.4 141.6 14 142 13.6C142.4 13.2 142.9 13 143.4 13C144 13 144.4 13.2 144.8 13.6C145.2 14 145.4 14.5 145.4 15ZM150.6 26.3C150.6 25.3 150.3 24.4 149.6 23.7C148.9 23 148.1 22.7 147 22.7H145.8C144.8 22.7 143.9 23 143.2 23.7C142.5 24.4 142.2 25.2 142.2 26.3V38.7C142.2 39.7 142.5 40.6 143.2 41.3C143.9 42 144.7 42.3 145.8 42.3H147C148 42.3 148.9 42 149.6 41.3C150.3 40.6 150.6 39.8 150.6 38.7V26.3ZM151.6 15C151.6 15.5 151.4 16 151 16.4C150.6 16.8 150.1 17 149.6 17C149 17 148.6 16.8 148.2 16.4C147.8 16 147.6 15.5 147.6 15C147.6 14.4 147.8 14 148.2 13.6C148.6 13.2 149.1 13 149.6 13C150.2 13 150.6 13.2 151 13.6C151.4 14 151.6 14.5 151.6 15Z" fill="white"/>
<path d="M173.2 22.7C173.2 23 173.1 23.1 172.8 23.1H168.2C167.9 23.1 167.8 23.2 167.8 23.5V44.7C167.8 45 167.7 45.1 167.4 45.1H164.6C164.3 45.1 164.2 45 164.2 44.7V23.5C164.2 23.2 164.1 23.1 163.8 23.1H159.2C158.9 23.1 158.8 23 158.8 22.7V20.3C158.8 20 158.9 19.9 159.2 19.9H172.8C173.1 19.9 173.2 20 173.2 20.3V22.7Z" fill="white"/>
<path d="M192.7 44.7C192.7 45 192.6 45.1 192.3 45.1H178.7C178.4 45.1 178.3 45 178.3 44.7V20.3C178.3 20 178.4 19.9 178.7 19.9H192.3C192.6 19.9 192.7 20 192.7 20.3V22.7C192.7 23 192.6 23.1 192.3 23.1H182.3C182 23.1 181.9 23.2 181.9 23.5V30.3C181.9 30.6 182 30.7 182.3 30.7H190.5C190.8 30.7 190.9 30.8 190.9 31.1V33.5C190.9 33.8 190.8 33.9 190.5 33.9H182.3C182 33.9 181.9 34 181.9 34.3V41.5C181.9 41.8 182 41.9 182.3 41.9H192.3C192.6 41.9 192.7 42 192.7 42.3V44.7Z" fill="white"/>
<path d="M214.5 38C214.5 40.2 213.9 42 212.6 43.2C211.3 44.5 209.6 45.1 207.3 45.1H199.3C199 45.1 198.9 45 198.9 44.7V20.3C198.9 20 199 19.9 199.3 19.9H207.3C209.5 19.9 211.3 20.5 212.6 21.8C213.9 23.1 214.5 24.9 214.5 27.1V27.5C214.5 28.5 214.1 29.6 213.3 30.7C213 31.2 212.6 31.5 212.3 31.8C212 32 211.8 32.2 211.8 32.3C211.8 32.4 212 32.6 212.3 32.9C212.6 33.1 213 33.5 213.3 34.1C214.1 35.3 214.5 36.4 214.5 37.4V38ZM210.9 26.7C210.9 25.7 210.6 24.8 209.9 24.1C209.2 23.4 208.4 23.1 207.3 23.1H202.9C202.6 23.1 202.5 23.2 202.5 23.5V30.3C202.5 30.6 202.6 30.7 202.9 30.7H207.3C208.3 30.7 209.2 30.4 209.9 29.7C210.6 29 210.9 28.2 210.9 27.1V26.7ZM210.9 37.5C210.9 36.5 210.6 35.7 209.9 35C209.2 34.3 208.4 33.9 207.3 33.9H202.9C202.6 33.9 202.5 34 202.5 34.3V41.5C202.5 41.8 202.6 41.9 202.9 41.9H207.3C208.3 41.9 209.2 41.5 209.9 40.8C210.6 40.1 210.9 39.2 210.9 38.3V37.5Z" fill="white"/>
<path d="M236.1 38.7C236.1 39.7 235.9 40.6 235.6 41.5C235.3 42.3 234.8 43.1 234.1 43.7C233.5 44.3 232.7 44.8 231.8 45.1C230.9 45.4 229.9 45.6 228.8 45.6H227.6C226.5 45.6 225.5 45.4 224.6 45.1C223.7 44.8 223 44.3 222.3 43.7C221.7 43.1 221.2 42.4 220.8 41.5C220.5 40.7 220.3 39.7 220.3 38.7V26.3C220.3 25.3 220.5 24.4 220.8 23.5C221.1 22.7 221.6 21.9 222.3 21.3C222.9 20.7 223.7 20.2 224.6 19.9C225.5 19.6 226.5 19.4 227.6 19.4H228.8C229.9 19.4 230.9 19.6 231.8 19.9C232.7 20.2 233.4 20.7 234.1 21.3C234.7 21.9 235.2 22.6 235.6 23.5C235.9 24.3 236.1 25.3 236.1 26.3V38.7ZM232.5 26.3C232.5 25.3 232.2 24.4 231.5 23.7C230.8 23 230 22.7 228.9 22.7H227.7C226.7 22.7 225.8 23 225.1 23.7C224.4 24.4 224.1 25.2 224.1 26.3V38.7C224.1 39.7 224.4 40.6 225.1 41.3C225.8 42 226.6 42.3 227.7 42.3H228.9C229.9 42.3 230.8 42 231.5 41.3C232.2 40.6 232.5 39.8 232.5 38.7V26.3Z" fill="white"/>
<path d="M258.6 44.6C258.6 44.7 258.6 44.7 258.6 44.8C258.6 45 258.5 45.1 258.2 45.1H255.1L254.7 44.8L251 34.1L250.7 33.9H246.7C246.4 33.9 246.3 34 246.3 34.3V44.7C246.3 45 246.2 45.1 245.9 45.1H243.1C242.8 45.1 242.7 45 242.7 44.7V20.3C242.7 20 242.8 19.9 243.1 19.9H251.1C253.3 19.9 255.1 20.5 256.4 21.8C257.7 23.1 258.3 24.9 258.3 27.1V27.5C258.3 28.2 258.1 28.9 257.7 29.8C257.3 30.6 256.8 31.4 256 32.1C255.6 32.4 255.3 32.7 255 32.8C254.7 32.9 254.6 33.1 254.6 33.3C254.6 33.4 254.6 33.4 254.6 33.4L258.6 44.6ZM254.8 26.7C254.8 25.7 254.5 24.8 253.8 24.1C253.1 23.4 252.3 23.1 251.2 23.1H246.8C246.5 23.1 246.4 23.2 246.4 23.5V30.3C246.4 30.6 246.5 30.7 246.8 30.7H251.2C252.2 30.7 253.1 30.4 253.8 29.7C254.5 29 254.8 28.2 254.8 27.1V26.7Z" fill="white"/>
<path d="M273.1 19.5C274.1 19.5 275 19.6 275.8 19.9C276.6 20.2 277.3 20.5 277.9 20.9C278.5 21.3 278.9 21.7 279.3 22.2C279.6 22.7 279.8 23.1 279.8 23.5C279.8 23.6 279.7 23.7 279.6 23.8L277 25.1C276.9 25.1 276.9 25.1 276.8 25.1C276.7 25.1 276.6 25 276.5 24.9C276 24.3 275.6 23.8 275.1 23.3C274.6 22.9 274 22.6 273.1 22.6H271.2C270.2 22.6 269.3 22.9 268.6 23.6C267.9 24.3 267.6 25.1 267.6 26.2V38.6C267.6 39.6 267.9 40.5 268.6 41.2C269.3 41.9 270.1 42.2 271.2 42.2H272.4C273.4 42.2 274.3 41.9 275 41.2C275.7 40.5 276 39.7 276 38.6V36C276 35.7 275.9 35.6 275.6 35.6H271.6C271.3 35.6 271.2 35.5 271.2 35.2V32.8C271.2 32.5 271.3 32.4 271.6 32.4H279.2C279.5 32.4 279.6 32.5 279.6 32.8V38.6C279.6 39.6 279.4 40.5 279.1 41.4C278.8 42.2 278.3 43 277.6 43.6C277 44.2 276.2 44.7 275.3 45C274.4 45.3 273.4 45.5 272.3 45.5H271.1C270 45.5 269 45.3 268.1 45C267.2 44.7 266.5 44.2 265.8 43.6C265.2 43 264.7 42.3 264.3 41.4C264 40.6 263.8 39.6 263.8 38.6V26.3C263.8 25.3 264 24.4 264.3 23.5C264.6 22.7 265.1 21.9 265.8 21.3C266.4 20.7 267.2 20.2 268.1 19.9C269 19.6 270 19.4 271.1 19.4H273.1V19.5Z" fill="white"/>
<path d="M292.1 22.7C291.6 22.7 291.2 22.8 290.7 23C290.3 23.2 289.9 23.4 289.5 23.8C289.2 24.1 288.9 24.5 288.7 24.9C288.5 25.3 288.4 25.8 288.4 26.3C288.4 26.8 288.5 27.3 288.8 27.7C289 28.1 289.4 28.4 289.8 28.8C290.2 29.1 290.8 29.5 291.4 29.8C292.1 30.1 292.8 30.4 293.6 30.8C294.7 31.3 295.6 31.8 296.4 32.3C297.2 32.8 297.8 33.4 298.3 34C298.8 34.6 299.2 35.3 299.5 36.1C299.8 36.9 299.9 37.7 299.9 38.7C299.9 39.7 299.7 40.6 299.4 41.5C299.1 42.3 298.6 43 297.9 43.6C297.3 44.2 296.5 44.7 295.6 45C294.7 45.3 293.7 45.5 292.6 45.5H290.9C289.9 45.5 289.1 45.4 288.3 45.2C287.6 45 287 44.7 286.5 44.4C285.7 43.8 285.2 43.2 284.8 42.7C284.4 42.2 284.2 41.8 284.2 41.4C284.2 41.3 284.3 41.2 284.4 41.1L286.9 39.8C287 39.7 287.1 39.7 287.1 39.7C287.2 39.7 287.3 39.8 287.5 40C287.7 40.3 288 40.6 288.2 40.9C288.4 41.2 288.6 41.4 288.9 41.6C289.1 41.8 289.4 42 289.7 42.1C290 42.2 290.4 42.3 290.9 42.3H292.6C293.6 42.3 294.4 42 295.1 41.3C295.8 40.6 296.2 39.8 296.2 38.7C296.2 38.1 296.1 37.6 295.9 37.2C295.7 36.8 295.4 36.4 295 36C294.6 35.6 294.1 35.3 293.5 35C292.9 34.7 292.2 34.3 291.4 34C290.3 33.5 289.4 33 288.6 32.5C287.8 32 287.1 31.5 286.5 30.9C285.9 30.3 285.5 29.7 285.2 28.9C284.9 28.2 284.8 27.3 284.8 26.3C284.8 25.3 285 24.4 285.3 23.5C285.6 22.7 286.1 21.9 286.8 21.3C287.4 20.7 288.2 20.2 289.1 19.9C290 19.6 291 19.4 292.1 19.4H292.7C293.7 19.4 294.6 19.5 295.4 19.8C296.2 20.1 296.9 20.4 297.5 20.8C298.1 21.2 298.5 21.7 298.9 22.1C299.2 22.6 299.4 23 299.4 23.4C299.4 23.5 299.3 23.6 299.2 23.7L296.6 25C296.5 25 296.5 25 296.4 25C296.3 25 296.2 24.9 296.1 24.8C295.6 24.2 295.2 23.7 294.7 23.2C294.2 22.8 293.6 22.5 292.7 22.5H292.1V22.7Z" fill="white"/>
<path d="M145.6 82.3C145.6 82.4 145.6 82.4 145.6 82.5C145.6 82.7 145.5 82.8 145.2 82.8H142.1L141.7 82.5L138 71.8L137.7 71.6H133.7C133.4 71.6 133.3 71.7 133.3 72V82.4C133.3 82.7 133.2 82.8 132.9 82.8H130.1C129.8 82.8 129.7 82.7 129.7 82.4V58C129.7 57.7 129.8 57.6 130.1 57.6H138.1C140.3 57.6 142.1 58.2 143.4 59.5C144.7 60.8 145.3 62.6 145.3 64.8V65.2C145.3 65.9 145.1 66.6 144.7 67.5C144.3 68.3 143.8 69.1 143 69.8C142.6 70.1 142.3 70.4 142 70.5C141.7 70.6 141.6 70.8 141.6 71C141.6 71.1 141.6 71.1 141.6 71.1L145.6 82.3ZM141.8 64.4C141.8 63.4 141.5 62.5 140.8 61.8C140.1 61.1 139.3 60.8 138.2 60.8H133.8C133.5 60.8 133.4 60.9 133.4 61.2V68C133.4 68.3 133.5 68.4 133.8 68.4H138.2C139.2 68.4 140.1 68.1 140.8 67.4C141.5 66.7 141.8 65.9 141.8 64.8V64.4Z" fill="white"/>
<path d="M166 82.5C166 82.8 165.9 82.9 165.6 82.9H152C151.7 82.9 151.6 82.8 151.6 82.5V58C151.6 57.7 151.7 57.6 152 57.6H165.6C165.9 57.6 166 57.7 166 58V60.4C166 60.7 165.9 60.8 165.6 60.8H155.6C155.3 60.8 155.2 60.9 155.2 61.2V68C155.2 68.3 155.3 68.4 155.6 68.4H163.8C164.1 68.4 164.2 68.5 164.2 68.8V71.2C164.2 71.5 164.1 71.6 163.8 71.6H155.6C155.3 71.6 155.2 71.7 155.2 72V79.2C155.2 79.5 155.3 79.6 155.6 79.6H165.6C165.9 79.6 166 79.7 166 80V82.5Z" fill="white"/>
<path d="M180.7 57.2C181.7 57.2 182.6 57.3 183.4 57.6C184.2 57.9 184.9 58.2 185.5 58.6C186.1 59 186.5 59.4 186.9 59.9C187.2 60.4 187.4 60.8 187.4 61.2C187.4 61.3 187.3 61.4 187.2 61.5L184.6 62.8C184.5 62.8 184.5 62.8 184.4 62.8C184.3 62.8 184.2 62.7 184.1 62.6C183.6 62 183.2 61.5 182.7 61C182.2 60.6 181.6 60.3 180.7 60.3H178.8C177.8 60.3 176.9 60.6 176.2 61.3C175.5 62 175.2 62.8 175.2 63.9V76.3C175.2 77.3 175.5 78.2 176.2 78.9C176.9 79.6 177.7 79.9 178.8 79.9H180C181 79.9 181.9 79.6 182.6 78.9C183.3 78.2 183.6 77.4 183.6 76.3V73.7C183.6 73.4 183.5 73.3 183.2 73.3H179.2C178.9 73.3 178.8 73.2 178.8 72.9V70.5C178.8 70.2 178.9 70.1 179.2 70.1H186.8C187.1 70.1 187.2 70.2 187.2 70.5V76.3C187.2 77.3 187 78.2 186.7 79.1C186.4 79.9 185.9 80.7 185.2 81.3C184.5 81.9 183.8 82.4 182.9 82.7C182 83 181 83.2 179.9 83.2H178.7C177.6 83.2 176.6 83 175.7 82.7C174.8 82.4 174.1 81.9 173.4 81.3C172.8 80.7 172.3 80 171.9 79.1C171.6 78.3 171.4 77.3 171.4 76.3V64C171.4 63 171.6 62.1 171.9 61.2C172.2 60.4 172.7 59.6 173.4 59C174 58.4 174.8 57.9 175.7 57.6C176.6 57.3 177.6 57.1 178.7 57.1H180.7V57.2Z" fill="white"/>
<path d="M197.5 82.5C197.5 82.8 197.4 82.9 197.1 82.9H194.3C194 82.9 193.9 82.8 193.9 82.5V58C193.9 57.7 194 57.6 194.3 57.6H197.1C197.4 57.6 197.5 57.7 197.5 58V82.5Z" fill="white"/>
<path d="M219.9 76.4C219.9 77.4 219.7 78.3 219.4 79.2C219.1 80 218.6 80.8 217.9 81.4C217.3 82 216.5 82.5 215.6 82.8C214.7 83.1 213.7 83.3 212.6 83.3H211.4C210.3 83.3 209.3 83.1 208.4 82.8C207.5 82.5 206.8 82 206.1 81.4C205.5 80.8 205 80.1 204.6 79.2C204.3 78.4 204.1 77.4 204.1 76.4V64C204.1 63 204.3 62.1 204.6 61.2C204.9 60.4 205.4 59.6 206.1 59C206.7 58.4 207.5 57.9 208.4 57.6C209.3 57.3 210.3 57.1 211.4 57.1H212.6C213.7 57.1 214.7 57.3 215.6 57.6C216.5 57.9 217.2 58.4 217.9 59C218.5 59.6 219 60.3 219.4 61.2C219.7 62 219.9 63 219.9 64V76.4ZM216.3 64C216.3 63 216 62.1 215.3 61.4C214.6 60.7 213.8 60.4 212.7 60.4H211.5C210.5 60.4 209.6 60.7 208.9 61.4C208.2 62.1 207.9 62.9 207.9 64V76.4C207.9 77.4 208.2 78.3 208.9 79C209.6 79.7 210.4 80 211.5 80H212.7C213.7 80 214.6 79.7 215.3 79C216 78.3 216.3 77.5 216.3 76.4V64Z" fill="white"/>
<path d="M242.9 82.5C242.9 82.8 242.8 82.9 242.5 82.9H239.9L239.5 82.7L230 64.7L230.2 82.5C230.2 82.8 230.1 82.9 229.8 82.9H227C226.7 82.9 226.6 82.8 226.6 82.5V58C226.6 57.7 226.7 57.6 227 57.6H229.6L230 57.8L239.5 75.7L239.3 58C239.3 57.7 239.4 57.6 239.7 57.6H242.5C242.8 57.6 242.9 57.7 242.9 58V82.5Z" fill="white"/>
<path d="M264.7 82.5C264.7 82.8 264.6 82.9 264.3 82.9H250.7C250.4 82.9 250.3 82.8 250.3 82.5V58C250.3 57.7 250.4 57.6 250.7 57.6H264.3C264.6 57.6 264.7 57.7 264.7 58V60.4C264.7 60.7 264.6 60.8 264.3 60.8H254.3C254 60.8 253.9 60.9 253.9 61.2V68C253.9 68.3 254 68.4 254.3 68.4H262.5C262.8 68.4 262.9 68.5 262.9 68.8V71.2C262.9 71.5 262.8 71.6 262.5 71.6H254.3C254 71.6 253.9 71.7 253.9 72V79.2C253.9 79.5 254 79.6 254.3 79.6H264.3C264.6 79.6 264.7 79.7 264.7 80V82.5Z" fill="white"/>
<path d="M287 82.5C287 82.8 286.9 82.9 286.6 82.9H284L283.6 82.7L274.1 64.7L274.3 82.5C274.3 82.8 274.2 82.9 273.9 82.9H271.1C270.8 82.9 270.7 82.8 270.7 82.5V58C270.7 57.7 270.8 57.6 271.1 57.6H273.7L274.1 57.8L283.6 75.7L283.4 58C283.4 57.7 283.5 57.6 283.8 57.6H286.6C286.9 57.6 287 57.7 287 58V82.5Z" fill="white"/>
</g>
<defs>
<clipPath id="clip0_3_76">
<rect width="300" height="96.3" fill="white"/>
</clipPath>
</defs>
</svg>
