<?xml version="1.0" encoding="utf-8"?>
<!-- Generator: Adobe Illustrator 25.4.1, SVG Export Plug-In . SVG Version: 6.00 Build 0)  -->
<svg version="1.1" id="Lager_1" xmlns="http://www.w3.org/2000/svg" xmlns:xlink="http://www.w3.org/1999/xlink" x="0px" y="0px"
	 viewBox="0 0 300 96.3" style="enable-background:new 0 0 300 96.3;" xml:space="preserve">
<g>
	<g>
		<path d="M80.9,68.3L66.9,50.2h0.3c6.9,0,12.6-5.6,12.6-12.6s-5.6-12.6-12.6-12.6c-6.9,0-12.6,5.6-12.6,12.6v10.7H34.5
			c-0.5,0-0.9,0.4-0.9,0.9c0,0.5,0.4,0.9,0.9,0.9h20.1c-0.5,10.7-9.3,19.2-20.1,19.2c-11.1,0-20.1-9-20.1-20.1
			c0-11.1,9-20.1,20.1-20.1c2.1,0,3.9,0.4,5.1,0.7c0.5,0.1,1-0.1,1.1-0.6c0.1-0.5-0.1-1-0.6-1.1c-1.9-0.5-3.8-0.8-5.6-0.8
			c-12.1,0-22,9.9-22,22s9.9,22,22,22c11.8,0,21.5-9.4,22-21h8.1l14.9,19.3c0.2,0.2,0.5,0.4,0.7,0.4c0.2,0,0.4-0.1,0.6-0.2
			C81.2,69.3,81.3,68.8,80.9,68.3z M56.5,37.6c0-5.9,4.8-10.7,10.7-10.7c5.9,0,10.7,4.8,10.7,10.7c0,5.9-4.8,10.7-10.7,10.7H56.5
			V37.6z"/>
		<g>
			<path d="M48.1,96.3C21.6,96.3,0,74.7,0,48.1C0,21.6,21.6,0,48.1,0c26.5,0,48.1,21.6,48.1,48.1C96.3,74.7,74.7,96.3,48.1,96.3z
				 M48.1,1.9C22.6,1.9,1.9,22.6,1.9,48.1c0,25.5,20.8,46.3,46.3,46.3c25.5,0,46.3-20.8,46.3-46.3C94.4,22.6,73.6,1.9,48.1,1.9z"/>
		</g>
	</g>
	<g>
		<g>
			<path d="M126,19.5c1,0,1.9,0.1,2.7,0.4c0.8,0.3,1.5,0.6,2.1,1c0.6,0.4,1,0.8,1.4,1.3c0.3,0.5,0.5,0.9,0.5,1.3
				c0,0.1-0.1,0.2-0.2,0.3l-2.6,1.3c-0.1,0-0.1,0-0.2,0c-0.1,0-0.2-0.1-0.3-0.2c-0.5-0.6-0.9-1.1-1.4-1.6c-0.5-0.4-1.1-0.7-2-0.7
				H124c-1,0-1.9,0.3-2.6,1c-0.7,0.7-1,1.5-1,2.6v12.4c0,1,0.3,1.9,1,2.6c0.7,0.7,1.5,1,2.6,1h1.2c1,0,1.9-0.3,2.6-1
				c0.7-0.7,1-1.5,1-2.6v-2.6c0-0.3-0.1-0.4-0.4-0.4h-4c-0.3,0-0.4-0.1-0.4-0.4v-2.4c0-0.3,0.1-0.4,0.4-0.4h7.6
				c0.3,0,0.4,0.1,0.4,0.4v5.8c0,1-0.2,1.9-0.5,2.8c-0.3,0.8-0.8,1.6-1.5,2.2c-0.6,0.6-1.4,1.1-2.3,1.4c-0.9,0.3-1.9,0.5-3,0.5H124
				c-1.1,0-2.1-0.2-3-0.5c-0.9-0.3-1.6-0.8-2.3-1.4c-0.6-0.6-1.1-1.3-1.5-2.2c-0.3-0.8-0.5-1.8-0.5-2.8V26.3c0-1,0.2-1.9,0.5-2.8
				c0.3-0.8,0.8-1.6,1.5-2.2c0.6-0.6,1.4-1.1,2.3-1.4c0.9-0.3,1.9-0.5,3-0.5H126z"/>
			<path d="M154.2,38.7c0,1-0.2,1.9-0.5,2.8c-0.3,0.8-0.8,1.6-1.5,2.2c-0.6,0.6-1.4,1.1-2.3,1.4c-0.9,0.3-1.9,0.5-3,0.5h-1.2
				c-1.1,0-2.1-0.2-3-0.5c-0.9-0.3-1.6-0.8-2.3-1.4c-0.6-0.6-1.1-1.3-1.5-2.2c-0.3-0.8-0.5-1.8-0.5-2.8V26.3c0-1,0.2-1.9,0.5-2.8
				c0.3-0.8,0.8-1.6,1.5-2.2c0.6-0.6,1.4-1.1,2.3-1.4c0.9-0.3,1.9-0.5,3-0.5h1.2c1.1,0,2.1,0.2,3,0.5c0.9,0.3,1.6,0.8,2.3,1.4
				c0.6,0.6,1.1,1.3,1.5,2.2c0.3,0.8,0.5,1.8,0.5,2.8V38.7z M145.4,15c0,0.5-0.2,1-0.6,1.4c-0.4,0.4-0.9,0.6-1.4,0.6
				c-0.6,0-1-0.2-1.4-0.6c-0.4-0.4-0.6-0.9-0.6-1.4c0-0.6,0.2-1,0.6-1.4c0.4-0.4,0.9-0.6,1.4-0.6c0.6,0,1,0.2,1.4,0.6
				C145.2,14,145.4,14.5,145.4,15z M150.6,26.3c0-1-0.3-1.9-1-2.6c-0.7-0.7-1.5-1-2.6-1h-1.2c-1,0-1.9,0.3-2.6,1
				c-0.7,0.7-1,1.5-1,2.6v12.4c0,1,0.3,1.9,1,2.6c0.7,0.7,1.5,1,2.6,1h1.2c1,0,1.9-0.3,2.6-1c0.7-0.7,1-1.5,1-2.6V26.3z M151.6,15
				c0,0.5-0.2,1-0.6,1.4c-0.4,0.4-0.9,0.6-1.4,0.6c-0.6,0-1-0.2-1.4-0.6c-0.4-0.4-0.6-0.9-0.6-1.4c0-0.6,0.2-1,0.6-1.4
				c0.4-0.4,0.9-0.6,1.4-0.6c0.6,0,1,0.2,1.4,0.6C151.4,14,151.6,14.5,151.6,15z"/>
			<path d="M173.2,22.7c0,0.3-0.1,0.4-0.4,0.4h-4.6c-0.3,0-0.4,0.1-0.4,0.4v21.2c0,0.3-0.1,0.4-0.4,0.4h-2.8c-0.3,0-0.4-0.1-0.4-0.4
				V23.5c0-0.3-0.1-0.4-0.4-0.4h-4.6c-0.3,0-0.4-0.1-0.4-0.4v-2.4c0-0.3,0.1-0.4,0.4-0.4h13.6c0.3,0,0.4,0.1,0.4,0.4V22.7z"/>
			<path d="M192.7,44.7c0,0.3-0.1,0.4-0.4,0.4h-13.6c-0.3,0-0.4-0.1-0.4-0.4V20.3c0-0.3,0.1-0.4,0.4-0.4h13.6c0.3,0,0.4,0.1,0.4,0.4
				v2.4c0,0.3-0.1,0.4-0.4,0.4h-10c-0.3,0-0.4,0.1-0.4,0.4v6.8c0,0.3,0.1,0.4,0.4,0.4h8.2c0.3,0,0.4,0.1,0.4,0.4v2.4
				c0,0.3-0.1,0.4-0.4,0.4h-8.2c-0.3,0-0.4,0.1-0.4,0.4v7.2c0,0.3,0.1,0.4,0.4,0.4h10c0.3,0,0.4,0.1,0.4,0.4V44.7z"/>
			<path d="M214.5,38c0,2.2-0.6,4-1.9,5.2c-1.3,1.3-3,1.9-5.3,1.9h-8c-0.3,0-0.4-0.1-0.4-0.4V20.3c0-0.3,0.1-0.4,0.4-0.4h8
				c2.2,0,4,0.6,5.3,1.9c1.3,1.3,1.9,3.1,1.9,5.3v0.4c0,1-0.4,2.1-1.2,3.2c-0.3,0.5-0.7,0.8-1,1.1c-0.3,0.2-0.5,0.4-0.5,0.5
				c0,0.1,0.2,0.3,0.5,0.6c0.3,0.2,0.7,0.6,1,1.2c0.8,1.2,1.2,2.3,1.2,3.3V38z M210.9,26.7c0-1-0.3-1.9-1-2.6c-0.7-0.7-1.5-1-2.6-1
				h-4.4c-0.3,0-0.4,0.1-0.4,0.4v6.8c0,0.3,0.1,0.4,0.4,0.4h4.4c1,0,1.9-0.3,2.6-1c0.7-0.7,1-1.5,1-2.6V26.7z M210.9,37.5
				c0-1-0.3-1.8-1-2.5c-0.7-0.7-1.5-1.1-2.6-1.1h-4.4c-0.3,0-0.4,0.1-0.4,0.4v7.2c0,0.3,0.1,0.4,0.4,0.4h4.4c1,0,1.9-0.4,2.6-1.1
				c0.7-0.7,1-1.6,1-2.5V37.5z"/>
			<path d="M236.1,38.7c0,1-0.2,1.9-0.5,2.8c-0.3,0.8-0.8,1.6-1.5,2.2c-0.6,0.6-1.4,1.1-2.3,1.4c-0.9,0.3-1.9,0.5-3,0.5h-1.2
				c-1.1,0-2.1-0.2-3-0.5c-0.9-0.3-1.6-0.8-2.3-1.4c-0.6-0.6-1.1-1.3-1.5-2.2c-0.3-0.8-0.5-1.8-0.5-2.8V26.3c0-1,0.2-1.9,0.5-2.8
				c0.3-0.8,0.8-1.6,1.5-2.2c0.6-0.6,1.4-1.1,2.3-1.4c0.9-0.3,1.9-0.5,3-0.5h1.2c1.1,0,2.1,0.2,3,0.5c0.9,0.3,1.6,0.8,2.3,1.4
				c0.6,0.6,1.1,1.3,1.5,2.2c0.3,0.8,0.5,1.8,0.5,2.8V38.7z M232.5,26.3c0-1-0.3-1.9-1-2.6c-0.7-0.7-1.5-1-2.6-1h-1.2
				c-1,0-1.9,0.3-2.6,1c-0.7,0.7-1,1.5-1,2.6v12.4c0,1,0.3,1.9,1,2.6c0.7,0.7,1.5,1,2.6,1h1.2c1,0,1.9-0.3,2.6-1
				c0.7-0.7,1-1.5,1-2.6V26.3z"/>
			<path d="M258.6,44.6c0,0.1,0,0.1,0,0.2c0,0.2-0.1,0.3-0.4,0.3h-3.1l-0.4-0.3l-3.7-10.7l-0.3-0.2h-4c-0.3,0-0.4,0.1-0.4,0.4v10.4
				c0,0.3-0.1,0.4-0.4,0.4h-2.8c-0.3,0-0.4-0.1-0.4-0.4V20.3c0-0.3,0.1-0.4,0.4-0.4h8c2.2,0,4,0.6,5.3,1.9c1.3,1.3,1.9,3.1,1.9,5.3
				v0.4c0,0.7-0.2,1.4-0.6,2.3c-0.4,0.8-0.9,1.6-1.7,2.3c-0.4,0.3-0.7,0.6-1,0.7c-0.3,0.1-0.4,0.3-0.4,0.5c0,0.1,0,0.1,0,0.1
				L258.6,44.6z M254.8,26.7c0-1-0.3-1.9-1-2.6c-0.7-0.7-1.5-1-2.6-1h-4.4c-0.3,0-0.4,0.1-0.4,0.4v6.8c0,0.3,0.1,0.4,0.4,0.4h4.4
				c1,0,1.9-0.3,2.6-1c0.7-0.7,1-1.5,1-2.6V26.7z"/>
			<path d="M273.1,19.5c1,0,1.9,0.1,2.7,0.4c0.8,0.3,1.5,0.6,2.1,1c0.6,0.4,1,0.8,1.4,1.3c0.3,0.5,0.5,0.9,0.5,1.3
				c0,0.1-0.1,0.2-0.2,0.3l-2.6,1.3c-0.1,0-0.1,0-0.2,0c-0.1,0-0.2-0.1-0.3-0.2c-0.5-0.6-0.9-1.1-1.4-1.6c-0.5-0.4-1.1-0.7-2-0.7
				h-1.9c-1,0-1.9,0.3-2.6,1c-0.7,0.7-1,1.5-1,2.6v12.4c0,1,0.3,1.9,1,2.6c0.7,0.7,1.5,1,2.6,1h1.2c1,0,1.9-0.3,2.6-1
				c0.7-0.7,1-1.5,1-2.6v-2.6c0-0.3-0.1-0.4-0.4-0.4h-4c-0.3,0-0.4-0.1-0.4-0.4v-2.4c0-0.3,0.1-0.4,0.4-0.4h7.6
				c0.3,0,0.4,0.1,0.4,0.4v5.8c0,1-0.2,1.9-0.5,2.8c-0.3,0.8-0.8,1.6-1.5,2.2c-0.6,0.6-1.4,1.1-2.3,1.4c-0.9,0.3-1.9,0.5-3,0.5h-1.2
				c-1.1,0-2.1-0.2-3-0.5c-0.9-0.3-1.6-0.8-2.3-1.4c-0.6-0.6-1.1-1.3-1.5-2.2c-0.3-0.8-0.5-1.8-0.5-2.8V26.3c0-1,0.2-1.9,0.5-2.8
				c0.3-0.8,0.8-1.6,1.5-2.2c0.6-0.6,1.4-1.1,2.3-1.4c0.9-0.3,1.9-0.5,3-0.5H273.1z"/>
			<path d="M292.1,22.7c-0.5,0-0.9,0.1-1.4,0.3c-0.4,0.2-0.8,0.4-1.2,0.8c-0.3,0.3-0.6,0.7-0.8,1.1c-0.2,0.4-0.3,0.9-0.3,1.4
				c0,0.5,0.1,1,0.4,1.4c0.2,0.4,0.6,0.7,1,1.1c0.4,0.3,1,0.7,1.6,1c0.7,0.3,1.4,0.6,2.2,1c1.1,0.5,2,1,2.8,1.5
				c0.8,0.5,1.4,1.1,1.9,1.7c0.5,0.6,0.9,1.3,1.2,2.1c0.3,0.8,0.4,1.6,0.4,2.6c0,1-0.2,1.9-0.5,2.8c-0.3,0.8-0.8,1.5-1.5,2.1
				c-0.6,0.6-1.4,1.1-2.3,1.4c-0.9,0.3-1.9,0.5-3,0.5h-1.7c-1,0-1.8-0.1-2.6-0.3c-0.7-0.2-1.3-0.5-1.8-0.8c-0.8-0.6-1.3-1.2-1.7-1.7
				c-0.4-0.5-0.6-0.9-0.6-1.3c0-0.1,0.1-0.2,0.2-0.3l2.5-1.3c0.1-0.1,0.2-0.1,0.2-0.1c0.1,0,0.2,0.1,0.4,0.3
				c0.2,0.3,0.5,0.6,0.7,0.9c0.2,0.3,0.4,0.5,0.7,0.7c0.2,0.2,0.5,0.4,0.8,0.5c0.3,0.1,0.7,0.2,1.2,0.2h1.7c1,0,1.8-0.3,2.5-1
				c0.7-0.7,1.1-1.5,1.1-2.6c0-0.6-0.1-1.1-0.3-1.5c-0.2-0.4-0.5-0.8-0.9-1.2c-0.4-0.4-0.9-0.7-1.5-1c-0.6-0.3-1.3-0.7-2.1-1
				c-1.1-0.5-2-1-2.8-1.5c-0.8-0.5-1.5-1-2.1-1.6c-0.6-0.6-1-1.2-1.3-2c-0.3-0.7-0.4-1.6-0.4-2.6c0-1,0.2-1.9,0.5-2.8
				c0.3-0.8,0.8-1.6,1.5-2.2c0.6-0.6,1.4-1.1,2.3-1.4c0.9-0.3,1.9-0.5,3-0.5h0.6c1,0,1.9,0.1,2.7,0.4c0.8,0.3,1.5,0.6,2.1,1
				c0.6,0.4,1,0.9,1.4,1.3c0.3,0.5,0.5,0.9,0.5,1.3c0,0.1-0.1,0.2-0.2,0.3l-2.6,1.3c-0.1,0-0.1,0-0.2,0c-0.1,0-0.2-0.1-0.3-0.2
				c-0.5-0.6-0.9-1.1-1.4-1.6c-0.5-0.4-1.1-0.7-2-0.7H292.1z"/>
		</g>
		<g>
			<path d="M145.6,82.3c0,0.1,0,0.1,0,0.2c0,0.2-0.1,0.3-0.4,0.3h-3.1l-0.4-0.3l-3.7-10.7l-0.3-0.2h-4c-0.3,0-0.4,0.1-0.4,0.4v10.4
				c0,0.3-0.1,0.4-0.4,0.4h-2.8c-0.3,0-0.4-0.1-0.4-0.4V58c0-0.3,0.1-0.4,0.4-0.4h8c2.2,0,4,0.6,5.3,1.9c1.3,1.3,1.9,3.1,1.9,5.3
				v0.4c0,0.7-0.2,1.4-0.6,2.3c-0.4,0.8-0.9,1.6-1.7,2.3c-0.4,0.3-0.7,0.6-1,0.7c-0.3,0.1-0.4,0.3-0.4,0.5c0,0.1,0,0.1,0,0.1
				L145.6,82.3z M141.8,64.4c0-1-0.3-1.9-1-2.6c-0.7-0.7-1.5-1-2.6-1h-4.4c-0.3,0-0.4,0.1-0.4,0.4V68c0,0.3,0.1,0.4,0.4,0.4h4.4
				c1,0,1.9-0.3,2.6-1c0.7-0.7,1-1.5,1-2.6V64.4z"/>
			<path d="M166,82.5c0,0.3-0.1,0.4-0.4,0.4h-13.6c-0.3,0-0.4-0.1-0.4-0.4V58c0-0.3,0.1-0.4,0.4-0.4h13.6c0.3,0,0.4,0.1,0.4,0.4v2.4
				c0,0.3-0.1,0.4-0.4,0.4h-10c-0.3,0-0.4,0.1-0.4,0.4V68c0,0.3,0.1,0.4,0.4,0.4h8.2c0.3,0,0.4,0.1,0.4,0.4v2.4
				c0,0.3-0.1,0.4-0.4,0.4h-8.2c-0.3,0-0.4,0.1-0.4,0.4v7.2c0,0.3,0.1,0.4,0.4,0.4h10c0.3,0,0.4,0.1,0.4,0.4V82.5z"/>
			<path d="M180.7,57.2c1,0,1.9,0.1,2.7,0.4c0.8,0.3,1.5,0.6,2.1,1c0.6,0.4,1,0.8,1.4,1.3c0.3,0.5,0.5,0.9,0.5,1.3
				c0,0.1-0.1,0.2-0.2,0.3l-2.6,1.3c-0.1,0-0.1,0-0.2,0c-0.1,0-0.2-0.1-0.3-0.2c-0.5-0.6-0.9-1.1-1.4-1.6c-0.5-0.4-1.1-0.7-2-0.7
				h-1.9c-1,0-1.9,0.3-2.6,1c-0.7,0.7-1,1.5-1,2.6v12.4c0,1,0.3,1.9,1,2.6c0.7,0.7,1.5,1,2.6,1h1.2c1,0,1.9-0.3,2.6-1
				c0.7-0.7,1-1.5,1-2.6v-2.6c0-0.3-0.1-0.4-0.4-0.4h-4c-0.3,0-0.4-0.1-0.4-0.4v-2.4c0-0.3,0.1-0.4,0.4-0.4h7.6
				c0.3,0,0.4,0.1,0.4,0.4v5.8c0,1-0.2,1.9-0.5,2.8c-0.3,0.8-0.8,1.6-1.5,2.2s-1.4,1.1-2.3,1.4c-0.9,0.3-1.9,0.5-3,0.5h-1.2
				c-1.1,0-2.1-0.2-3-0.5c-0.9-0.3-1.6-0.8-2.3-1.4c-0.6-0.6-1.1-1.3-1.5-2.2c-0.3-0.8-0.5-1.8-0.5-2.8V64c0-1,0.2-1.9,0.5-2.8
				c0.3-0.8,0.8-1.6,1.5-2.2c0.6-0.6,1.4-1.1,2.3-1.4c0.9-0.3,1.9-0.5,3-0.5H180.7z"/>
			<path d="M197.5,82.5c0,0.3-0.1,0.4-0.4,0.4h-2.8c-0.3,0-0.4-0.1-0.4-0.4V58c0-0.3,0.1-0.4,0.4-0.4h2.8c0.3,0,0.4,0.1,0.4,0.4
				V82.5z"/>
			<path d="M219.9,76.4c0,1-0.2,1.9-0.5,2.8c-0.3,0.8-0.8,1.6-1.5,2.2c-0.6,0.6-1.4,1.1-2.3,1.4c-0.9,0.3-1.9,0.5-3,0.5h-1.2
				c-1.1,0-2.1-0.2-3-0.5c-0.9-0.3-1.6-0.8-2.3-1.4c-0.6-0.6-1.1-1.3-1.5-2.2c-0.3-0.8-0.5-1.8-0.5-2.8V64c0-1,0.2-1.9,0.5-2.8
				c0.3-0.8,0.8-1.6,1.5-2.2c0.6-0.6,1.4-1.1,2.3-1.4c0.9-0.3,1.9-0.5,3-0.5h1.2c1.1,0,2.1,0.2,3,0.5c0.9,0.3,1.6,0.8,2.3,1.4
				c0.6,0.6,1.1,1.3,1.5,2.2c0.3,0.8,0.5,1.8,0.5,2.8V76.4z M216.3,64c0-1-0.3-1.9-1-2.6c-0.7-0.7-1.5-1-2.6-1h-1.2
				c-1,0-1.9,0.3-2.6,1c-0.7,0.7-1,1.5-1,2.6v12.4c0,1,0.3,1.9,1,2.6c0.7,0.7,1.5,1,2.6,1h1.2c1,0,1.9-0.3,2.6-1
				c0.7-0.7,1-1.5,1-2.6V64z"/>
			<path d="M242.9,82.5c0,0.3-0.1,0.4-0.4,0.4h-2.6l-0.4-0.2l-9.5-18l0.2,17.8c0,0.3-0.1,0.4-0.4,0.4H227c-0.3,0-0.4-0.1-0.4-0.4V58
				c0-0.3,0.1-0.4,0.4-0.4h2.6l0.4,0.2l9.5,17.9L239.3,58c0-0.3,0.1-0.4,0.4-0.4h2.8c0.3,0,0.4,0.1,0.4,0.4V82.5z"/>
			<path d="M264.7,82.5c0,0.3-0.1,0.4-0.4,0.4h-13.6c-0.3,0-0.4-0.1-0.4-0.4V58c0-0.3,0.1-0.4,0.4-0.4h13.6c0.3,0,0.4,0.1,0.4,0.4
				v2.4c0,0.3-0.1,0.4-0.4,0.4h-10c-0.3,0-0.4,0.1-0.4,0.4V68c0,0.3,0.1,0.4,0.4,0.4h8.2c0.3,0,0.4,0.1,0.4,0.4v2.4
				c0,0.3-0.1,0.4-0.4,0.4h-8.2c-0.3,0-0.4,0.1-0.4,0.4v7.2c0,0.3,0.1,0.4,0.4,0.4h10c0.3,0,0.4,0.1,0.4,0.4V82.5z"/>
			<path d="M287,82.5c0,0.3-0.1,0.4-0.4,0.4h-2.6l-0.4-0.2l-9.5-18l0.2,17.8c0,0.3-0.1,0.4-0.4,0.4h-2.8c-0.3,0-0.4-0.1-0.4-0.4V58
				c0-0.3,0.1-0.4,0.4-0.4h2.6l0.4,0.2l9.5,17.9L283.4,58c0-0.3,0.1-0.4,0.4-0.4h2.8c0.3,0,0.4,0.1,0.4,0.4V82.5z"/>
		</g>
	</g>
</g>
</svg>
