<svg width="335" height="483" viewBox="0 0 335 483" fill="none" xmlns="http://www.w3.org/2000/svg">
<g clip-path="url(#clip0_3_77)">
<path d="M218.85 424.82C214.49 421.69 213.67 418.65 213.59 416.51C213.51 414.37 215.4 407.3 215.59 403.68C215.78 400.06 214.03 391.43 213.78 386.9C213.53 382.37 217.16 377.12 217.78 372.9C218.4 368.68 211.62 364.02 209.39 360.82C207.16 357.62 205.04 358.51 202.98 359.66C200.92 360.81 193.98 363.86 188.59 366.08C183.2 368.3 171.4 370.6 165.4 371.59C157.765 372.578 150.035 372.578 142.4 371.59C135.66 370.59 135.54 369.51 132.19 367.38C125.91 363.38 118.99 363.13 116.11 364.81C113.56 366.3 110.42 373.81 114.85 381.95C115.8 383.69 122.04 397.95 118.16 404.36C117.16 406.06 113.28 409.53 109.34 412.21C101.2 417.77 101.86 434.69 106.28 441.68C110.54 448.41 115.09 444.34 116.65 446.07C118.21 447.8 115.76 451.77 115.02 455.72C114.28 459.67 115.44 460.94 117.02 461.56C129.71 466.56 133.79 447.26 137.89 437.98C146.43 418.66 155.95 421.45 154.69 430.26C154 435.09 148.29 442.19 149.21 445.08C149.93 447.33 152.63 446.75 155.75 446.92C158.87 447.09 160.65 450.3 160.75 453.17C160.86 455.59 159.02 458.43 154.01 458.76C149 459.09 147.49 461.76 146.38 464.13C140.12 477.7 158.82 482.87 164.17 482.47C171.3 481.93 178.1 477.84 180.49 476.69C182.88 475.54 185.73 475.48 189.15 477.19C199.57 482.41 204.99 478.25 206.64 477.02C208.29 475.79 214.53 472.02 219.14 471.42C223.75 470.82 225.22 466.08 225.88 463.61C226.54 461.14 229.99 451.85 230.24 443.3C230.49 434.75 223.21 427.94 218.85 424.82Z" fill="#CEE3ED"/>
<path d="M155.57 91.12C156.96 91.88 158.42 93.57 158.51 97.87C158.51 99.15 158.75 119.35 159.7 124.27C160.7 129.59 161.21 133.69 165.04 136.71C166.38 137.77 175.43 145 180.51 145.51C183.74 145.83 185.85 143.51 190.51 142.71C195.17 141.91 199.12 142.24 203.34 140.17C209.06 137.37 214.62 130 218.05 126.83C221.48 123.66 227.05 116.34 232.67 115.26C236.48 114.53 240.04 112.34 241.05 109.26C242.06 106.18 243.05 102.95 244.78 100.53C246.98 97.46 245.89 95.94 244.67 95.15C241.32 93 225.38 95 220.8 95C214.18 95 205.66 88.33 202.49 85.61C194.49 78.75 194.36 54.1 200.21 43.17C202.645 39.0555 206.145 35.6736 210.34 33.38C215.34 30.71 214.15 27.03 213.26 25C212.608 23.701 211.609 22.6084 210.373 21.844C209.137 21.0795 207.713 20.673 206.26 20.67C202.83 20.67 198.95 19.79 197.43 18.52C195.91 17.25 195.43 13.92 196.64 11.52C199.64 5.41997 197.11 0.0799719 192.79 -0.0500281C188.47 -0.180028 172.38 12.42 169.57 25.75C166.52 40.24 159.51 50.24 150.52 68.75C149.1 71.75 148.26 78.1 149.15 82.67C150.04 87.24 152.49 89.43 155.57 91.12Z" fill="#CEE3ED"/>
<path d="M334.49 90.58C333.05 80.58 329.05 75.25 323.19 71.93C317.61 68.77 309.88 67.74 304.41 66.72C298.94 65.7 296.12 63.29 294.47 60.36C293.381 58.3357 291.833 56.5942 289.951 55.2746C288.069 53.9549 285.904 53.0938 283.63 52.76C278.31 52.1 261.12 53.76 252.63 65.26C247.84 71.74 251.63 75.33 247.45 80.9C244.68 84.61 244.97 87.9 247.19 91.12C250.19 95.44 251.19 96.12 258.13 101.05C272.39 111.2 260.34 130.26 253.81 138.05C247.81 145.22 244.16 146.94 243.66 151.53C242.78 159.62 245.54 162.53 243.48 168.36C241.16 174.88 242.39 177.9 244.3 181.23C246.39 184.84 246.71 184.68 249.76 189.36C254.47 196.6 255.35 202.43 256.22 209.88C257.09 217.33 255.71 231.56 255.46 239.56C255.21 247.56 258.15 248.89 260.06 251.18C261.97 253.47 265.06 255.02 267.06 265.98C268.7 275.1 278.48 271.98 281.96 271.16C287.71 269.86 297.74 260.9 299.15 251.88C300.82 241.21 314.85 238.65 318.8 234.41C322.75 230.17 320.56 223.85 318.91 221.69C317.26 219.53 314.91 214.36 318.47 202.29C322.03 190.22 318.58 184.86 313.53 182.12C310.16 180.29 286.6 171.44 289.53 152.38C290.66 144.96 298.3 136.75 305.03 131.16C311.76 125.57 319.23 120.95 322.91 117.77C334.21 108 335.7 98.91 334.49 90.58Z" fill="#CEE3ED"/>
<path d="M189.7 260.29C186.58 259.29 181.23 259.37 176.82 260.77C168.66 263.35 169.42 269.9 166.12 275.22C161.83 282.15 161.92 284.83 163.58 289.87C165.76 296.48 167.35 298.11 170.64 298.54C176.16 299.25 189.15 289.49 191.82 285.42C194.49 281.35 195.44 278.94 195.5 274.37C195.55 270.93 195.53 262.16 189.7 260.29Z" fill="#CEE3ED"/>
<path d="M160.67 311.31C160.46 307.44 157.67 305.15 153.67 303.63C148.99 302.016 143.921 301.915 139.18 303.34C131.89 305.34 127.52 311.34 127.26 316.78C127 322.22 130.26 327.01 131.65 331.65C133.4 337.59 133.65 345.65 132.89 354.22C132.23 361.63 133.66 364.97 142.13 367.48C149 369.48 165.39 367.67 179.49 364.24C193.59 360.81 204.22 356.06 204.75 353.09C205.23 350.42 205.29 348.95 199.7 344.09C194.11 339.23 187.6 334.37 176.07 334.81C167.31 335.15 162.62 333.51 159.83 330.94C157.51 328.79 154.9 325.32 158.15 320.65C160.49 317.36 160.88 315.26 160.67 311.31Z" fill="#CEE3ED"/>
<path d="M68.0001 250.57C70.5801 252.47 72.79 249.57 76.74 248.74C79.83 248.12 89.86 249.01 94.89 246.61C100.24 244.05 110.46 227.05 117.84 227.46C121.4 227.66 121.84 231.38 125.28 234.84C135.28 244.84 144.28 236.63 144.54 228.38C145.82 187.3 157.85 187.48 168.97 171.25C174.97 162.42 177.91 155.64 177.11 152.3C175.52 145.54 164 140.18 161 139C158 137.82 154.26 139.11 151.23 142.26C146.91 146.75 144.23 156.44 142.32 159.26C140.18 162.37 136.5 163.89 132.79 164.11C129.394 164.224 126.006 164.514 122.64 164.98C120.35 165.46 112.51 167.27 106.58 165.87C101.02 164.57 95.2301 162.66 92.5801 161.87C89.9301 161.08 87.09 160.12 84.1 161.87C79.5 164.56 74.9601 172.71 83.6201 181.04C85.6201 183.04 86.9401 187.24 84.1901 187.8C81.4401 188.36 80.71 188.96 80.09 190.56C77.29 197.82 70.4301 192.94 67.5101 197.56C66.3901 199.32 68.1201 200.56 67.8001 203.28C67.2901 207.63 62.5701 207.23 60.6601 209.84C57.1701 214.61 62.9801 216.84 59.6601 222.24C58.1501 224.73 59.04 227.98 62.94 232.17C65.9603 235.386 67.6627 239.619 67.71 244.03C67.67 246.72 66.5601 249.48 68.0001 250.57Z" fill="#CEE3ED"/>
<path d="M30.09 126.3C34.45 126.17 40.49 126.56 40.75 129.38C41.01 132.2 37.66 134.65 32.01 135.8C26.36 136.95 27.65 147.49 27.52 151.22C27.39 154.95 29.7 155.84 31.11 156.1C32.52 156.36 34.2 157 34.32 161.75C34.44 166.5 38.69 167.91 42.16 167.53C45.63 167.15 47.42 162.26 47.04 159.82C46.66 157.38 47.68 156.48 50.89 155.82C54.1 155.16 60.65 154.41 62.43 152.74C64.21 151.07 66.69 137.84 67.74 135.53C68.79 133.22 72.21 128.85 75.04 131.42C77.87 133.99 70.72 136.96 73.5 140.66C75.04 142.72 79.5 140.41 81.84 137.84C83.68 135.84 84.67 127.31 85.7 117.16C86.73 107.01 83.26 105.09 79.53 104.96C75.8 104.83 73.24 105.86 71.06 103.32C68.88 100.78 73.06 97.9 70.41 95.58C67.76 93.26 60.52 96.1 58.6 99.82C56.68 103.54 57.83 104.96 56.93 107.4C56.03 109.84 52.56 111.81 49.61 111.9C45.4265 111.863 41.3518 110.563 37.92 108.17C35.48 106.37 32.78 105.35 29.7 108.04C26.62 110.73 22.25 117.16 22.64 120.12C22.896 121.89 23.7997 123.502 25.176 124.643C26.5523 125.785 28.3034 126.375 30.09 126.3Z" fill="#CEE3ED"/>
<path d="M88.47 154.69C89.35 158.07 94.75 158.87 98.18 159.51C101.61 160.15 106.44 162.43 114.11 162.3C121.11 162.18 125.22 160.51 130.11 160.09C134.41 159.72 136.74 159.04 139.11 156.09C140.6 154.22 141.19 148.16 144.87 142.83C148.55 137.5 152.7 137.34 154.69 131.83C157.48 124.04 155.15 101.83 155.07 99.38C154.92 94.27 151.87 93.1 149.46 91.19C148.147 90.1576 147.117 88.8084 146.469 87.2691C145.82 85.7299 145.572 84.051 145.75 82.39C145.97 78.33 141.75 76.45 138.83 77.09C135.91 77.73 133.18 77.75 131.55 76.47C129.01 74.47 128.99 70.31 125.55 67.56C121.7 64.46 117.55 64.15 114.73 67.56C106.24 77.84 108.5 88.43 102.96 94.91C97.42 101.39 98.39 111.56 99.12 120.15C101.08 143 86.09 145.54 88.47 154.69Z" fill="#CEE3ED"/>
<path d="M257.88 105.17C254.35 100.78 252.12 100.79 250.44 101.17C244.94 102.35 245.26 109.23 243.07 113.28C241.28 116.59 235.53 118.17 231.67 120.08C225.11 123.33 212.72 137.84 210.67 140.08C208.62 142.32 200.81 146.08 195 146.33C189.19 146.58 185.83 148.14 183.74 150.52C181.65 152.9 181.84 155.75 179.5 160.91C176.5 167.62 173.5 173.47 167.15 180.53C160.8 187.59 158.64 190.1 154.98 196.9C148.85 208.3 146.55 231.21 152.43 233.76C163.36 238.52 176.61 213.76 197.85 208.59C204.07 207.07 212.28 201.81 214.97 200.46C218.46 198.72 221.21 195.2 222.07 187.76C222.93 180.32 223.07 173.48 226.57 169.35C230.07 165.22 235.57 162.53 237.95 159.27C241.06 154.97 238.38 152.27 241.3 147.09C244.6 141.22 258.08 130.95 260.99 115.74C261.65 112 261.4 109.55 257.88 105.17Z" fill="#CEE3ED"/>
<path d="M252.83 212.48C252.35 207.71 249.89 197.61 246.83 192.53C245.349 189.893 243.646 187.388 241.74 185.04C238.56 181.1 237.18 176.77 238.07 172.45C238.73 169.2 241.4 166.52 238.9 165.22C237.3 164.39 231.71 169.22 228.9 174.88C227.18 178.34 226.69 184.88 225.83 190.55C224.97 196.22 222.34 200.29 219.67 202.39C217 204.49 208.61 208.93 204.67 210.5C194.06 214.77 195.82 221.45 198.89 225.21C200.98 227.78 214.36 239.78 208.65 252.12C206.24 257.33 198.9 258.12 198.95 271.46C198.95 280.32 207.17 282.25 210.04 282.54C212.91 282.83 226.36 283.68 230.21 284.42C235.08 285.36 239.41 289.82 242.12 290.99C256.12 296.99 261.91 274.29 263.12 270.69C265.12 264.75 263.12 261.86 261.91 259.56C260.39 256.76 256.31 253.44 253.65 249.33C252.44 247.46 251.17 241.89 252.32 234.46C253.272 227.172 253.443 219.804 252.83 212.48Z" fill="#CEE3ED"/>
<path d="M106.26 337.12C108.52 329.74 113.09 332.69 114.08 336.65C114.49 338.31 115.38 339.53 113.89 342.94C112.321 346.848 112.051 351.157 113.12 355.23C114.36 360.09 119.98 359.86 123.12 360.43C126.26 361 128.74 358.33 129.31 352.25C129.43 350.92 132.56 336.41 125.89 326.25C122.36 320.88 124.05 313.25 125.22 310.53C127.22 306.02 131.13 301.62 138.66 299.38C143.49 297.93 148.51 298.17 154.86 300.38C156.04 300.79 159.92 301.68 161.09 300.47C162.67 298.81 162.18 296.42 160.32 291.81C157.05 283.7 160.23 277.5 162.65 273.81C164.65 270.81 164.65 268.73 165.81 265.95C170.71 254.37 181.88 254.59 186.88 256.11C200.26 260.11 203.37 253 205.12 248.86C206.32 246 206.4 241.35 203.39 236.26C199.99 230.49 192.18 216.93 180.63 223.2C174.52 226.51 161.2 239.71 151.21 242.3C138.55 245.58 132.69 243.09 130.69 242.3C128.69 241.51 123.35 237.06 120.96 233.81C118.36 230.25 115.48 232.11 113.33 233.55C111.57 234.72 105.65 240.89 103.46 244.42C95.86 256.66 78.83 250.65 81.56 267.54C81.81 269.06 81.47 270.48 78.83 271.43C77.18 272.03 71.3 273.1 66.83 275.67C62.36 278.24 60.93 283.67 61.83 289.39C62.73 295.11 66.6 298.1 71.55 297.39C76.5 296.68 76.01 293.96 81.67 292.68C85.92 291.68 86.33 293.96 87.38 295.3C88.43 296.64 89.19 298.53 92.9 300.3C96.61 302.07 100.81 300.88 108.9 298.87C114.25 297.571 119.052 294.613 122.62 290.42C124.05 288.82 126.43 286.1 128.05 287.34C129.67 288.58 128.24 292.34 126.43 294.97C124.62 297.6 118.9 299.83 113.95 301.45C109 303.07 101.65 307.54 97.65 310.03C89.14 315.32 98.57 339.91 103.37 340.81C105.31 341.22 105.87 338.41 106.26 337.12Z" fill="#CEE3ED"/>
<path d="M261.71 299.57C257.8 294.81 255.61 295.52 253.45 295.71C250.84 295.95 245.57 297.43 241.13 295.08C236.96 292.88 231.57 287.67 225.37 287.61C204.24 287.43 204.18 282.61 198.25 284.2C195.1 285.05 192.55 291.02 185.43 295.82C173.72 303.71 168.6 302.01 166 302.32C165.356 302.339 164.73 302.535 164.192 302.888C163.653 303.242 163.224 303.737 162.95 304.32C162.29 305.56 163.55 308.53 164 310.55C165.23 316.14 163.3 319.04 161.68 320.79C159.84 322.79 159.27 325.2 160.56 327.58C162 330.26 165.82 331.43 170.03 331.8C174.24 332.17 175.59 331.35 180.1 331.8C185.21 332.27 192.49 335.22 192.49 335.22C194.96 335.93 199.62 339.42 202.38 342C205.14 344.58 205.6 344.95 206.92 346.35C209.83 349.43 213.84 348.29 215.82 347.11C218.76 345.37 222.54 341.53 224.76 339.9C229.49 336.42 230.04 342.55 230.76 344.76C231.76 347.81 234.06 348.27 236 347.76C239.18 346.85 243 345.76 244.68 346.9C246.36 348.04 246.39 349 248.3 352.24C250.21 355.48 254.24 354.09 255 353.62C255.76 353.15 263.36 350.14 265.55 348.62C267.74 347.1 273.32 344.62 275.94 341.37C278.23 338.509 279.603 335.024 279.88 331.37C280.492 327.334 279.791 323.208 277.88 319.6C275.6 315.35 265.62 304.34 261.71 299.57Z" fill="#CEE3ED"/>
<path d="M88.7999 101.21C91.0199 100.21 89.7999 95.95 89.6099 94.77C89.4199 93.59 86.7699 91.9 85.0899 92.71C83.4099 93.52 80.9099 95.54 80.6499 97.57C80.6499 97.57 79.6499 100.57 80.8699 102.42C82.0899 104.27 86.5699 102.22 88.7999 101.21Z" fill="#CEE3ED"/>
<path d="M27.91 277C28.5021 277.859 29.1716 278.663 29.91 279.4C30.64 280.09 31.55 280.53 32.25 281.25C32.4498 281.465 32.6368 281.693 32.81 281.93C33.23 282.51 33.62 283.11 33.99 283.73L34.08 283.89C34.42 284.47 34.94 285.27 35.67 284.89C36.24 284.58 36.2 283.68 36.37 283.14C36.82 281.7 38.19 280.9 37.89 279.24C37.24 275.62 35.48 271.43 31.79 270.05C30.9613 269.813 30.1522 269.512 29.37 269.15C28.61 268.72 27.97 267.57 27.01 268.15C26.4838 268.658 26.1514 269.333 26.07 270.06C26.03 270.388 25.92 270.703 25.7474 270.984C25.5749 271.265 25.3438 271.506 25.07 271.69C24.66 271.9 24.07 271.91 23.88 272.3C23.8176 272.475 23.8111 272.665 23.8612 272.844C23.9114 273.024 24.0157 273.183 24.16 273.3C25.5384 274.396 26.7955 275.636 27.91 277Z" fill="#CEE3ED"/>
<path d="M40.9399 312.25C40.6999 310.2 40.0099 307.92 40.9399 305.9C41.4799 304.71 40.2399 304.53 39.2399 304.47C38.9277 304.439 38.6124 304.473 38.3144 304.571C38.0164 304.669 37.7423 304.829 37.5099 305.04C37.0699 305.44 36.8099 305.99 36.1799 306.14C35.0499 306.43 34.1799 305.25 33.0699 305.67C31.9599 306.09 30.2999 307.61 28.9699 306.85C27.6399 306.09 27.3899 303.94 26.1999 302.85C24.8581 301.913 23.2105 301.519 21.5899 301.75C20.7594 301.816 19.9584 302.088 19.2598 302.542C18.5613 302.996 17.9873 303.618 17.5899 304.35C16.7976 305.342 16.2404 306.501 15.9599 307.74C15.9653 307.817 15.9653 307.893 15.9599 307.97C15.9368 309.126 16.2875 310.259 16.9599 311.2C17.6899 312.2 19.3399 312.86 20.2799 311.73C20.5999 311.34 20.7199 310.4 21.2799 310.38C21.8399 310.36 22.1799 310.83 22.4999 311.07C22.9799 311.42 23.4399 311.82 23.8799 312.21C24.7394 312.901 25.542 313.66 26.2799 314.48C26.8815 315.397 27.2615 316.441 27.3899 317.53C27.6181 318.44 28.1125 319.262 28.8099 319.89C29.1336 320.144 29.5102 320.321 29.9118 320.409C30.3134 320.498 30.7297 320.495 31.1299 320.4C32.0299 320.27 32.9799 320.21 33.8699 320.01C34.5199 319.86 35.2199 319.23 35.8699 319.45C36.3062 319.624 36.722 319.845 37.1099 320.11C37.6999 320.43 38.2699 320.78 38.8199 321.11C39.7099 321.72 41.2199 321.39 42.1199 321C42.7199 320.73 43.3699 320.27 43.3899 319.55C43.4099 318.83 42.7199 318.17 42.4399 317.55C41.6739 315.87 41.1682 314.083 40.9399 312.25Z" fill="#CEE3ED"/>
<path d="M50.86 286.07C51.94 282.56 53.98 279.4 55.07 275.89C55.3417 275.134 55.4673 274.333 55.44 273.53C55.4249 273.128 55.32 272.734 55.1332 272.378C54.9463 272.021 54.6821 271.711 54.36 271.47C53.941 271.238 53.5105 271.028 53.07 270.84C52.5182 270.473 52.0594 269.984 51.7296 269.409C51.3998 268.835 51.2082 268.191 51.17 267.53C51.01 266.21 51.17 264.88 51.12 263.53C51.03 261.79 50.43 259.92 48.53 259.3C48.0337 259.139 47.5084 259.088 46.9904 259.15C46.4724 259.212 45.9741 259.386 45.53 259.66C43.71 260.76 43.22 262.87 43.03 264.84C43.0045 266.489 42.7141 268.123 42.17 269.68C41.5 271.19 40.17 272.48 40.11 274.12C40.1581 275.149 40.3777 276.163 40.76 277.12C41.44 279.46 41.29 281.96 41.54 284.38C42.006 289.199 44.2695 293.665 47.88 296.89C48.0256 297.014 48.199 297.1 48.3854 297.142C48.5718 297.184 48.7655 297.18 48.95 297.13C49.2128 297.066 49.4468 296.916 49.6151 296.704C49.7835 296.492 49.8766 296.231 49.88 295.96C49.94 292.49 49.81 289.43 50.86 286.07Z" fill="#CEE3ED"/>
<path d="M39.24 298.88C39.3953 298.619 39.4813 298.323 39.49 298.02C39.49 297.29 38.71 296.84 38.13 296.38C34.92 293.82 36.13 288.26 33.31 285.27C32.5097 284.464 31.4834 283.921 30.3672 283.712C29.2509 283.503 28.0975 283.638 27.06 284.1C26.0396 284.592 25.1768 285.359 24.569 286.315C23.9612 287.271 23.6325 288.377 23.62 289.51C23.7704 291.256 24.1504 292.974 24.75 294.62C25.28 296.62 25.42 298.78 26.24 300.71C27.06 302.64 28.83 304.39 30.92 304.3C32.1352 304.159 33.2947 303.712 34.29 303L36.99 301.36L36.92 301.66C37.8981 300.925 38.6923 299.974 39.24 298.88Z" fill="#CEE3ED"/>
<path d="M38.65 323.52C37.1 323.61 35.77 324.73 34.22 324.91C33.7146 324.902 33.2113 324.976 32.73 325.13C32.4753 325.269 32.254 325.462 32.0813 325.695C31.9086 325.928 31.7887 326.196 31.73 326.48C31.5923 327.101 31.6116 327.746 31.7863 328.357C31.9609 328.968 32.2852 329.526 32.73 329.98C33.6286 330.879 34.7448 331.53 35.97 331.87C36.1061 331.896 36.2314 331.962 36.33 332.06C36.4655 332.252 36.635 332.418 36.83 332.55C36.9109 332.578 36.999 332.578 37.08 332.55C37.29 332.49 37.4599 332.25 37.5999 332.1C37.8844 331.789 38.142 331.454 38.3699 331.1C38.5457 330.809 38.7059 330.508 38.8499 330.2C38.9199 330.05 38.98 329.9 39.04 329.74C39.1246 329.597 39.1854 329.442 39.22 329.28C39.6734 327.952 40.008 326.587 40.22 325.2V325.14C40.3001 324.839 40.3001 324.521 40.22 324.22C40.0671 323.951 39.8323 323.738 39.5499 323.612C39.2674 323.486 38.9521 323.454 38.65 323.52Z" fill="#CEE3ED"/>
<path d="M18.05 249.7C19.6888 248.856 21.0189 247.515 21.85 245.87C21.92 245.72 21.99 245.57 22.05 245.42C22.4293 244.673 22.5354 243.817 22.35 243C22.0312 242.251 21.5414 241.586 20.92 241.06C19.3034 239.368 17.9545 237.439 16.92 235.34C16.6011 234.579 16.1733 233.868 15.65 233.23C15.3864 232.914 15.0477 232.67 14.665 232.52C14.2822 232.37 13.8679 232.318 13.46 232.37C12.8317 232.552 12.2781 232.931 11.88 233.45C10.776 234.808 9.96302 236.379 9.49167 238.065C9.02031 239.751 8.9006 241.516 9.13997 243.25C9.2658 244.67 9.66657 246.053 10.32 247.32C10.9759 248.586 12.03 249.602 13.32 250.21C14.0298 250.536 14.8119 250.672 15.5901 250.605C16.3682 250.539 17.1158 250.271 17.76 249.83L18.05 249.7Z" fill="#CEE3ED"/>
<path d="M60.69 331C62.52 332.25 62.94 334.86 64.63 336.29C65.5418 336.979 66.6043 337.442 67.73 337.64C68.7083 337.897 69.7192 338.009 70.73 337.97C71.7517 337.926 72.7312 337.551 73.52 336.9C74.3697 336.114 74.9091 335.05 75.04 333.9C75.2057 332.457 75.104 330.996 74.74 329.59L74.67 329.12C73.8488 326.481 73.3321 323.757 73.13 321C73.0857 320.197 72.8601 319.414 72.47 318.71C71.9378 318.02 71.2533 317.462 70.47 317.08C69.796 316.572 68.9742 316.298 68.13 316.3C67.03 316.43 66.27 317.46 65.72 318.42C65.17 319.38 64.57 320.42 63.51 320.82C62.73 321.09 61.83 320.91 61.09 321.27C60.7199 321.499 60.4063 321.808 60.1725 322.176C59.9388 322.543 59.7909 322.958 59.74 323.39C59.6457 324.254 59.4853 325.11 59.26 325.95C59.06 326.5 58.74 326.95 58.51 327.54C58.2442 328.074 58.1975 328.692 58.38 329.26C58.78 330.13 59.88 330.44 60.69 331Z" fill="#CEE3ED"/>
<path d="M82.8 318.85C81.3542 318.647 79.8804 318.858 78.55 319.46C77.3957 319.82 76.4069 320.579 75.76 321.6C75.4475 322.199 75.342 322.885 75.46 323.55C75.6912 324.456 76.1648 325.283 76.83 325.94C77.55 326.73 78.34 327.44 79.08 328.21C79.7335 328.79 80.2964 329.464 80.75 330.21L80.93 330.6C81.19 331.12 82 330.35 82.23 330.13C83.9133 328.525 85.1416 326.503 85.79 324.27C86.105 323.384 86.1639 322.428 85.96 321.51C85.7252 320.821 85.3068 320.209 84.7499 319.741C84.1931 319.272 83.5189 318.964 82.8 318.85Z" fill="#CEE3ED"/>
<path d="M86.92 337.17C86.9818 336.726 86.9379 336.273 86.792 335.85C86.646 335.426 86.4021 335.042 86.08 334.73C85.924 334.534 85.7305 334.371 85.5107 334.251C85.2908 334.131 85.0492 334.056 84.8 334.03C84 334.03 83.44 334.77 82.89 335.34C81.83 336.42 80.38 337.09 79.46 338.34C78.7368 339.305 78.4241 340.516 78.59 341.71C78.6165 342.096 78.7382 342.47 78.944 342.798C79.1499 343.126 79.4336 343.398 79.77 343.59C80.0916 343.715 80.4484 343.715 80.77 343.59C80.91 343.59 81.15 343.41 81.32 343.45C81.49 343.49 81.52 343.79 81.56 343.94C81.606 344.168 81.7254 344.376 81.9 344.53C82.197 344.741 82.5397 344.878 82.9 344.93C83.4165 345.015 83.9434 345.015 84.46 344.93C85.11 344.83 85.87 344.57 86.03 343.93C86.0585 343.711 86.0403 343.487 85.9765 343.275C85.9128 343.063 85.8049 342.867 85.66 342.7C85.3685 342.368 85.1291 341.994 84.95 341.59C84.8809 341.179 84.9112 340.758 85.0382 340.361C85.1652 339.965 85.3852 339.604 85.68 339.31C86.2513 338.701 86.6755 337.969 86.92 337.17Z" fill="#CEE3ED"/>
<path d="M59.72 350.54C60.1735 349.86 60.4455 349.075 60.51 348.26C60.6052 347.855 60.5666 347.431 60.4 347.05C60.2539 346.839 60.0656 346.661 59.847 346.526C59.6283 346.392 59.3842 346.305 59.13 346.27C58.2395 346.055 57.3159 346.015 56.41 346.15C56.165 346.159 55.9258 346.227 55.7119 346.347C55.4981 346.467 55.3158 346.636 55.18 346.84C54.97 347.29 55.18 347.9 54.8 348.25C54.6791 348.35 54.5327 348.415 54.3771 348.436C54.2216 348.457 54.0632 348.434 53.92 348.37C53.763 348.298 53.6153 348.207 53.48 348.1C53.3539 348.018 53.2479 347.909 53.17 347.78C53.1336 347.709 53.1164 347.63 53.12 347.55C53.12 347.34 53.18 347.11 53.12 346.89C53.0826 346.624 52.9757 346.372 52.81 346.16C52.6671 345.957 52.4619 345.806 52.2255 345.73C51.989 345.654 51.7343 345.658 51.5 345.74C51.2675 345.894 51.0735 346.1 50.933 346.341C50.7926 346.582 50.7094 346.852 50.69 347.13L50.24 349.13C50.133 349.5 50.0791 349.884 50.08 350.27C50.0774 350.465 50.1141 350.658 50.188 350.839C50.2619 351.019 50.3714 351.183 50.51 351.32C50.8562 351.59 51.2934 351.715 51.73 351.67C52.7051 351.516 53.6563 351.237 54.56 350.84C54.9642 350.685 55.4016 350.637 55.83 350.7C56.45 350.82 56.94 351.31 57.55 351.47C57.9628 351.541 58.3874 351.491 58.7725 351.326C59.1576 351.161 59.4866 350.888 59.72 350.54Z" fill="#CEE3ED"/>
<path d="M71.1201 371.06C71.9223 370.807 72.6515 370.365 73.2453 369.769C73.8391 369.173 74.2799 368.443 74.5301 367.64C74.8901 366.48 74.8301 365.18 75.4301 364.12C76.1801 362.79 77.8801 362 78.1201 360.49C78.148 359.835 78.0909 359.18 77.9501 358.54C77.9612 357.096 78.1119 355.655 78.4001 354.24C78.5101 352.8 78.0901 351.11 76.7701 350.51C75.0301 349.72 72.7701 351.28 71.1601 350.27C70.3701 349.79 69.9801 348.81 69.1601 348.35C68.6513 348.098 68.0874 347.977 67.5201 348C66.4492 347.914 65.3777 348.158 64.4501 348.7C62.9101 349.7 62.3901 351.7 60.9801 352.91C60.5301 353.29 59.9801 353.57 59.5601 353.98C59.3302 354.166 59.1517 354.409 59.0414 354.683C58.9312 354.958 58.8929 355.256 58.9301 355.55C59.0076 355.815 59.154 356.054 59.3543 356.244C59.5545 356.434 59.8015 356.567 60.0701 356.63C60.6046 356.752 61.1562 356.779 61.7001 356.71L64.2301 356.53C64.7455 356.461 65.2697 356.498 65.7701 356.64C66.0161 356.715 66.2342 356.861 66.3963 357.061C66.5585 357.26 66.6573 357.504 66.6801 357.76C66.6594 358.047 66.5702 358.325 66.4201 358.57C66.4201 358.96 65.8701 359.67 65.7001 360.03L65.0001 361.48C64.5601 362.36 63.2301 363.3 62.9301 364.33C62.8585 364.572 62.8514 364.828 62.9092 365.074C62.9671 365.319 63.088 365.546 63.2601 365.73C63.5945 366.073 63.9708 366.372 64.3801 366.62C64.6877 366.809 64.9543 367.057 65.1639 367.351C65.3735 367.645 65.5218 367.978 65.6001 368.33C65.6632 368.988 65.9367 369.609 66.3801 370.1C67.0345 370.63 67.8072 370.994 68.6324 371.161C69.4577 371.328 70.3111 371.293 71.1201 371.06Z" fill="#CEE3ED"/>
<path d="M87.5999 369.77C87.1576 369.577 86.7671 369.282 86.4599 368.91C86.3148 368.634 86.2136 368.337 86.16 368.03C86.0245 367.525 85.8011 367.048 85.4999 366.62C85.1664 366.276 84.8957 365.877 84.6999 365.44V365.12C84.5699 363.91 86.5299 363.19 87.3399 362.66C88.1565 362.182 88.8273 361.491 89.2799 360.66C89.4919 360.237 89.5719 359.76 89.5095 359.291C89.4471 358.822 89.2452 358.383 88.9299 358.03C88.5474 357.743 88.1037 357.549 87.6336 357.462C87.1634 357.376 86.6796 357.399 86.2199 357.53C85.5261 357.603 84.8826 357.927 84.41 358.44C84.1657 358.847 83.9582 359.276 83.7899 359.72C83.4926 360.287 83.0137 360.738 82.4299 361C81.8399 361.27 81.1699 361.34 80.5699 361.58C80.2563 361.67 79.9766 361.851 79.7664 362.1C79.5562 362.349 79.4251 362.656 79.3899 362.98C79.3899 363.53 79.8199 363.98 79.8699 364.57C79.856 365.047 79.6953 365.508 79.4099 365.89C78.7542 366.953 78.0293 367.972 77.2399 368.94C76.8399 369.42 76.4299 369.89 76.0099 370.35C75.6599 370.72 74.4899 371.56 75.1999 372.13C75.3467 372.229 75.5089 372.304 75.6799 372.35C77.0737 372.758 78.4158 373.325 79.6799 374.04C80.7098 374.778 81.8462 375.355 83.0499 375.75C84.8399 376.15 86.6899 375.42 88.3299 374.6C88.6441 374.467 88.9269 374.269 89.16 374.02C89.3223 373.779 89.4281 373.505 89.4697 373.217C89.5113 372.93 89.4874 372.637 89.3999 372.36C89.1544 371.298 88.5099 370.371 87.5999 369.77Z" fill="#CEE3ED"/>
<path d="M75.42 379.63C74.04 379.1 72.42 378.63 71.23 379.88C71.0676 380.067 70.9267 380.271 70.81 380.49C70.3639 381.589 70.2156 382.786 70.38 383.96C70.46 385.3 70.53 386.63 70.6 387.96C70.67 388.311 70.6596 388.673 70.5695 389.02C70.4794 389.366 70.3121 389.687 70.08 389.96C69.86 390.14 69.57 390.24 69.34 390.42C69.0526 390.703 68.8519 391.062 68.7615 391.456C68.6712 391.849 68.695 392.26 68.83 392.64C69.1138 393.396 69.3313 394.176 69.48 394.97C69.58 396.4 68.62 397.71 68.54 399.14C68.46 400.73 69.46 402.14 70.41 403.44C70.6674 403.841 71.0085 404.183 71.41 404.44C72.41 404.99 73.64 404.44 74.75 404.56C75.2276 404.714 75.7287 404.782 76.23 404.76C76.3295 404.73 76.4218 404.68 76.5009 404.613C76.5801 404.546 76.6445 404.463 76.69 404.37C76.8996 403.789 76.931 403.159 76.78 402.56C76.5904 401.404 76.6483 400.222 76.95 399.09C77.2319 398.404 77.4757 397.703 77.68 396.99C78 395.37 77.14 393.77 76.91 392.13C76.56 389.56 77.77 387.05 78.32 384.51C78.6295 383.499 78.5547 382.409 78.11 381.45C77.4441 380.557 76.4962 379.916 75.42 379.63Z" fill="#CEE3ED"/>
<path d="M47.6899 214.75C47.6921 214.424 47.6167 214.102 47.47 213.81C45.99 210.28 42.77 207.68 41.47 204.08C40.99 202.74 40.8 201.3 40.24 200C39.5627 198.44 38.3978 197.142 36.9199 196.3C35.8999 195.77 34.823 195.357 33.7099 195.07C31.2952 194.242 28.7913 193.702 26.25 193.46C23.4602 193.336 20.6846 193.922 18.1834 195.164C15.6822 196.406 13.5373 198.263 11.95 200.56C11.7026 200.885 11.5224 201.255 11.42 201.65C11.1 203.1 12.64 204.29 14.08 204.65C14.998 204.75 15.8617 205.134 16.5499 205.75C16.9703 206.42 17.1304 207.22 17 208C16.8798 208.76 16.9555 209.538 17.2199 210.26C17.2922 210.434 17.3993 210.591 17.5346 210.722C17.6699 210.853 17.8305 210.955 18.0066 211.021C18.1827 211.088 18.3705 211.117 18.5586 211.109C18.7466 211.1 18.9308 211.053 19.1 210.97C19.4787 210.586 19.7271 210.093 19.8099 209.56C19.953 209.108 20.1874 208.69 20.4988 208.332C20.8102 207.974 21.1918 207.684 21.62 207.48C22.0532 207.285 22.5317 207.214 23.0028 207.274C23.4739 207.334 23.9193 207.523 24.29 207.82C25.01 208.44 25.42 209.55 26.36 209.67C27.05 209.75 27.6399 209.23 28.2099 208.82C29.0971 208.17 30.1249 207.739 31.2099 207.56L31.3099 207.78C31.5405 208.002 31.6917 208.293 31.7405 208.609C31.7893 208.926 31.7329 209.249 31.58 209.53C31.2537 210.082 30.8419 210.578 30.36 211C29.5068 211.95 28.875 213.077 28.51 214.3C28.375 214.589 28.3241 214.91 28.363 215.227C28.4019 215.543 28.5291 215.842 28.7299 216.09C28.9559 216.263 29.2199 216.38 29.5 216.43C34.7925 217.775 40.3374 217.775 45.63 216.43C46.5499 216.18 47.6399 215.7 47.6899 214.75Z" fill="#CEE3ED"/>
<path d="M15.42 212.92C15.6516 212.742 15.8415 212.516 15.9762 212.256C16.111 211.997 16.1874 211.712 16.2 211.42C16.129 211.043 15.9864 210.683 15.78 210.36C15.46 209.73 15.26 209.03 14.89 208.43C14.458 207.831 13.9109 207.325 13.2807 206.94C12.6505 206.556 11.9499 206.301 11.22 206.19C9.77996 205.9 8.28996 205.93 6.82996 205.74C5.51719 205.453 4.17242 205.338 2.82996 205.4C2.16129 205.447 1.52542 205.708 1.01596 206.143C0.506493 206.579 0.150352 207.167 -4.3402e-05 207.82C-0.00419797 208.413 0.156278 208.995 0.463501 209.501C0.770724 210.008 1.21262 210.42 1.73996 210.69C2.79511 211.201 3.88438 211.639 4.99996 212C6.78114 212.692 8.52367 213.48 10.22 214.36C11.139 214.538 12.0869 214.501 12.9891 214.251C13.8913 214.001 14.7233 213.545 15.42 212.92Z" fill="#CEE3ED"/>
<path d="M56.39 202C57.15 201.2 58.33 201 59.19 200.27C59.8756 199.722 60.3233 198.93 60.44 198.06C60.63 196.53 59.76 194.96 60.18 193.47C60.5158 192.689 60.9207 191.939 61.39 191.23C61.6293 190.874 61.7478 190.45 61.728 190.022C61.7082 189.593 61.5511 189.182 61.28 188.85C60.47 188.09 59.17 188.66 58.23 189.25L54.9 191.36C54.6666 191.529 54.4011 191.648 54.12 191.71C53.7412 191.735 53.3632 191.652 53.03 191.47L49.61 190C48.741 189.581 47.814 189.294 46.86 189.15C46.3828 189.083 45.8968 189.123 45.4368 189.266C44.9769 189.41 44.5545 189.654 44.2 189.98C42.88 191.35 43.57 193.64 42.94 195.43C42.6145 196.078 42.3306 196.746 42.09 197.43C42.0126 198.083 42.087 198.744 42.3073 199.364C42.5276 199.983 42.8878 200.543 43.36 201C44.2934 201.879 45.1467 202.84 45.91 203.87C46.4449 204.934 46.8704 206.05 47.18 207.2C47.9819 209.479 49.3599 211.511 51.18 213.1C51.4196 213.34 51.7205 213.509 52.05 213.59C52.2179 213.624 52.3926 213.594 52.5391 213.505C52.6856 213.416 52.793 213.275 52.84 213.11L52.56 213.31C53.77 211.31 55.02 209.17 55.28 206.82C55.48 205.12 55.23 203.2 56.39 202Z" fill="#CEE3ED"/>
<path d="M47.4799 176.1C47.8646 176.306 48.2935 176.416 48.7299 176.42C49.3113 176.43 49.89 176.339 50.4399 176.15L52.9299 175.34C53.6575 175.146 54.338 174.806 54.9299 174.34C55.5599 173.78 56.8599 173.75 57.2299 172.92C57.3782 172.428 57.3317 171.898 57.0999 171.44C56.7899 170.61 56.4899 169.77 56.1899 168.94C56.0831 168.528 55.8528 168.158 55.5299 167.88C55.1987 167.704 54.8228 167.631 54.4499 167.67C52.7888 167.825 51.1606 168.23 49.6199 168.87C48.4621 169.161 47.4176 169.792 46.6199 170.68C46.2813 171.221 46.0725 171.833 46.0101 172.468C45.9476 173.103 46.0331 173.744 46.2599 174.34C46.4362 175.057 46.8706 175.683 47.4799 176.1Z" fill="#CEE3ED"/>
<path d="M32.25 176.47C31.9917 176.832 31.8361 177.257 31.8 177.7C31.8258 177.966 31.911 178.223 32.0495 178.451C32.188 178.68 32.3762 178.874 32.6 179.02C33.0107 179.297 33.4723 179.49 33.958 179.588C34.4438 179.686 34.9441 179.687 35.43 179.59C36.0544 179.491 36.6484 179.253 37.1679 178.893C37.6873 178.533 38.1187 178.06 38.43 177.51C38.6981 177.017 38.8476 176.469 38.8667 175.908C38.8858 175.347 38.7739 174.79 38.5401 174.28C38.4219 174.032 38.2343 173.824 38 173.68C37.6851 173.449 37.3004 173.332 36.91 173.35C36.52 173.35 36.18 173.42 35.71 173.44C35.1128 173.436 34.5278 173.61 34.03 173.94C33.6168 174.298 33.2771 174.732 33.03 175.22L32.25 176.47Z" fill="#CEE3ED"/>
</g>
<defs>
<clipPath id="clip0_3_77">
<rect width="334.84" height="482.51" fill="white"/>
</clipPath>
</defs>
</svg>
