<svg width="438" height="611" viewBox="0 0 438 611" fill="none" xmlns="http://www.w3.org/2000/svg">
<g clip-path="url(#clip0_47_566)">
<path d="M286.275 537.948C280.572 533.984 279.499 530.134 279.394 527.425C279.29 524.715 281.762 515.762 282.011 511.178C282.259 506.594 279.97 495.666 279.643 489.93C279.316 484.193 284.064 477.545 284.875 472.201C285.686 466.858 276.817 460.957 273.9 456.905C270.983 452.853 268.21 453.979 265.516 455.436C262.821 456.892 253.743 460.754 246.692 463.565C239.642 466.377 224.206 469.289 216.358 470.543C206.371 471.794 196.259 471.794 186.272 470.543C177.455 469.276 177.298 467.909 172.916 465.212C164.701 460.146 155.649 459.83 151.882 461.957C148.546 463.844 144.439 473.354 150.234 483.661C151.477 485.865 159.639 503.922 154.564 512.039C153.256 514.192 148.18 518.586 143.026 521.98C132.378 529.02 133.242 550.446 139.024 559.297C144.596 567.819 150.548 562.666 152.588 564.856C154.629 567.047 151.424 572.074 150.456 577.076C149.488 582.078 151.006 583.686 153.072 584.471C169.672 590.803 175.009 566.363 180.372 554.612C191.543 530.147 203.996 533.68 202.348 544.836C201.445 550.952 193.976 559.943 195.18 563.603C196.122 566.452 199.653 565.717 203.735 565.933C207.816 566.148 210.144 570.213 210.275 573.847C210.419 576.911 208.012 580.508 201.459 580.926C194.905 581.343 192.93 584.724 191.478 587.726C183.289 604.909 207.75 611.456 214.749 610.949C224.075 610.266 232.97 605.086 236.097 603.63C239.223 602.174 242.951 602.098 247.425 604.263C261.055 610.873 268.145 605.606 270.303 604.048C272.462 602.491 280.624 597.717 286.654 596.957C292.685 596.197 294.607 590.195 295.471 587.067C296.334 583.939 300.847 572.175 301.174 561.349C301.501 550.522 291.978 541.898 286.275 537.948Z" fill="#1A7267"/>
<path d="M203.499 115.385C205.317 116.347 207.227 118.487 207.345 123.932C207.345 125.553 207.659 151.132 208.902 157.362C210.21 164.099 210.877 169.291 215.887 173.115C217.64 174.457 229.478 183.613 236.123 184.258C240.348 184.664 243.108 181.726 249.204 180.713C255.299 179.7 260.466 180.118 265.987 177.496C273.469 173.951 280.742 164.618 285.228 160.604C289.715 156.59 297.001 147.321 304.353 145.953C309.337 145.029 313.993 142.255 315.315 138.355C316.636 134.455 317.931 130.365 320.194 127.301C323.071 123.413 321.646 121.488 320.05 120.488C315.668 117.765 294.817 120.298 288.826 120.298C280.166 120.298 269.021 111.852 264.875 108.407C254.41 99.7206 254.24 68.5064 261.892 54.6658C265.078 49.4557 269.656 45.1732 275.143 42.2688C281.684 38.8878 280.127 34.2278 278.963 31.6573C278.11 30.0124 276.803 28.6289 275.186 27.6608C273.57 26.6927 271.707 26.1781 269.806 26.1742C265.319 26.1742 260.244 25.0599 258.256 23.4517C256.267 21.8435 255.64 17.6267 257.222 14.5876C261.147 6.8632 257.837 0.101184 252.186 -0.0634344C246.535 -0.228053 225.488 15.7273 221.812 32.607C217.823 50.9556 208.653 63.6185 196.893 87.0577C195.036 90.8565 193.937 98.8975 195.101 104.684C196.265 110.471 199.47 113.245 203.499 115.385Z" fill="#1A7267"/>
<path d="M437.542 114.701C435.658 102.038 430.426 95.2886 422.761 91.0845C415.462 87.083 405.35 85.7787 398.195 84.4871C391.04 83.1955 387.351 80.1437 385.193 76.4335C383.768 73.8701 381.744 71.6648 379.282 69.9938C376.819 68.3228 373.988 67.2323 371.013 66.8096C364.054 65.9739 341.568 68.0759 330.462 82.6383C324.196 90.8439 329.154 95.3899 323.686 102.443C320.063 107.141 320.442 111.307 323.346 115.385C327.27 120.855 328.578 121.716 337.657 127.959C356.31 140.812 340.547 164.947 332.006 174.812C324.157 183.891 319.383 186.069 318.729 191.882C317.577 202.126 321.188 205.811 318.493 213.193C315.458 221.45 317.067 225.274 319.566 229.491C322.3 234.062 322.718 233.859 326.708 239.786C332.869 248.953 334.02 256.336 335.158 265.77C336.296 275.204 334.491 293.223 334.164 303.354C333.837 313.484 337.683 315.168 340.181 318.068C342.68 320.968 346.722 322.93 349.338 336.809C351.483 348.358 364.276 344.407 368.828 343.368C376.35 341.722 389.47 330.376 391.314 318.954C393.499 305.443 411.851 302.201 417.018 296.832C422.185 291.463 419.32 283.46 417.162 280.725C415.004 277.99 411.93 271.443 416.587 256.159C421.243 240.875 416.73 234.087 410.125 230.618C405.716 228.3 374.898 217.094 378.731 192.958C380.209 183.562 390.202 173.166 399.006 166.087C407.809 159.009 417.581 153.158 422.395 149.131C437.176 136.76 439.125 125.249 437.542 114.701Z" fill="#1A7267"/>
<path d="M248.144 329.604C244.063 328.338 237.065 328.439 231.296 330.212C220.622 333.479 221.616 341.773 217.299 348.51C211.688 357.285 211.806 360.679 213.977 367.061C216.829 375.431 218.908 377.495 223.212 378.04C230.433 378.939 247.425 366.58 250.917 361.426C254.41 356.272 255.653 353.22 255.731 347.433C255.797 343.077 255.77 331.972 248.144 329.604Z" fill="#1A7267"/>
<path d="M210.17 394.21C209.896 389.31 206.246 386.41 201.014 384.485C194.892 382.441 188.261 382.313 182.06 384.118C172.524 386.651 166.807 394.248 166.467 401.137C166.127 408.026 170.391 414.091 172.21 419.967C174.499 427.489 174.826 437.695 173.832 448.547C172.968 457.93 174.839 462.16 185.918 465.338C194.905 467.871 216.345 465.579 234.789 461.235C253.233 456.892 267.138 450.877 267.831 447.116C268.459 443.735 268.537 441.874 261.225 435.72C253.913 429.565 245.397 423.411 230.315 423.968C218.856 424.399 212.721 422.322 209.072 419.068C206.037 416.345 202.623 411.951 206.874 406.038C209.935 401.871 210.445 399.212 210.17 394.21Z" fill="#1A7267"/>
<path d="M88.9499 317.295C92.3248 319.701 95.2157 316.029 100.383 314.978C104.425 314.193 117.545 315.32 124.124 312.281C131.123 309.039 144.491 287.512 154.145 288.031C158.802 288.285 159.377 292.995 163.877 297.377C176.958 310.04 188.731 299.643 189.071 289.196C190.745 237.177 206.482 237.405 221.028 216.853C228.876 205.672 232.722 197.086 231.675 192.857C229.596 184.296 214.526 177.509 210.602 176.015C206.678 174.521 201.786 176.154 197.822 180.143C192.171 185.829 188.665 198.099 186.167 201.67C183.368 205.608 178.554 207.533 173.701 207.812C169.259 207.956 164.827 208.324 160.424 208.913C157.428 209.521 147.173 211.813 139.416 210.04C132.143 208.394 124.569 205.975 121.103 204.975C117.636 203.975 113.921 202.759 110.01 204.975C103.993 208.381 98.0542 218.702 109.382 229.25C111.998 231.783 113.725 237.101 110.128 237.81C106.531 238.519 105.576 239.279 104.765 241.305C101.102 250.498 92.1286 244.319 88.309 250.169C86.8439 252.398 89.1069 253.968 88.6883 257.412C88.0212 262.921 81.847 262.414 79.3486 265.719C74.7834 271.759 82.3833 274.583 78.0405 281.421C76.0653 284.574 77.2295 288.69 82.331 293.996C86.2818 298.068 88.5086 303.428 88.5706 309.014C88.5183 312.42 87.0663 315.915 88.9499 317.295Z" fill="#1A7267"/>
<path d="M39.3604 159.933C45.0636 159.768 52.9645 160.262 53.3046 163.833C53.6447 167.404 49.2626 170.507 41.8719 171.963C34.4812 173.419 36.1686 186.766 35.9986 191.489C35.8285 196.212 38.8502 197.339 40.6946 197.669C42.539 197.998 44.7366 198.808 44.8936 204.823C45.0505 210.838 50.6099 212.624 55.149 212.142C59.688 211.661 62.0295 205.469 61.5324 202.379C61.0354 199.289 62.3696 198.15 66.5686 197.314C70.7675 196.478 79.3355 195.529 81.6639 193.414C83.9923 191.299 87.2364 174.546 88.6098 171.621C89.9833 168.696 94.457 163.162 98.1589 166.416C101.861 169.671 92.508 173.432 96.1444 178.117C98.1589 180.726 103.993 177.8 107.054 174.546C109.461 172.013 110.756 161.212 112.103 148.359C113.45 135.506 108.911 133.075 104.032 132.91C99.153 132.746 95.8043 134.05 92.9527 130.834C90.1011 127.617 95.5689 123.97 92.1025 121.032C88.636 118.095 79.1655 121.691 76.6539 126.401C74.1424 131.112 75.6467 132.91 74.4694 136C73.2921 139.09 68.7531 141.584 64.8942 141.698C59.4219 141.651 54.0918 140.005 49.6027 136.975C46.4109 134.696 42.8791 133.404 38.8502 136.81C34.8213 140.217 29.105 148.359 29.6151 152.107C29.95 154.348 31.132 156.389 32.9324 157.835C34.7328 159.281 37.0233 160.028 39.3604 159.933Z" fill="#1A7267"/>
<path d="M115.727 195.883C116.878 200.163 123.941 201.176 128.428 201.987C132.915 202.797 139.233 205.684 149.266 205.52C158.422 205.368 163.799 203.253 170.195 202.721C175.82 202.253 178.868 201.392 181.968 197.656C183.917 195.288 184.689 187.614 189.503 180.865C194.316 174.116 199.745 173.913 202.348 166.936C205.998 157.071 202.95 128.947 202.845 125.844C202.649 119.374 198.659 117.892 195.507 115.473C193.789 114.166 192.442 112.458 191.594 110.508C190.745 108.559 190.421 106.433 190.654 104.33C190.942 99.1889 185.421 96.8082 181.602 97.6186C177.782 98.4291 174.211 98.4544 172.079 96.8336C168.756 94.301 168.73 89.0332 164.23 85.5509C159.194 81.6253 153.766 81.2328 150.077 85.5509C138.971 98.5684 141.927 111.978 134.681 120.184C127.434 128.39 128.703 141.268 129.658 152.145C132.221 181.08 112.613 184.297 115.727 195.883Z" fill="#1A7267"/>
<path d="M337.33 133.176C332.712 127.617 329.795 127.63 327.597 128.111C320.403 129.605 320.822 138.317 317.957 143.446C315.615 147.637 308.094 149.638 303.045 152.057C294.464 156.172 278.256 174.546 275.575 177.383C272.893 180.219 262.677 184.98 255.077 185.297C247.477 185.614 243.082 187.589 240.348 190.603C237.614 193.617 237.863 197.225 234.802 203.76C230.877 212.256 226.953 219.664 218.647 228.604C210.34 237.544 207.515 240.723 202.727 249.334C194.709 263.769 191.7 292.78 199.392 296.009C213.689 302.037 231.021 270.683 258.805 264.137C266.941 262.212 277.681 255.551 281.2 253.842C285.765 251.638 289.362 247.181 290.487 237.76C291.612 228.338 291.795 219.677 296.373 214.447C300.952 209.217 308.146 205.811 311.259 201.683C315.328 196.238 311.822 192.819 315.642 186.259C319.958 178.826 337.591 165.821 341.398 146.561C342.261 141.825 341.934 138.723 337.33 133.176Z" fill="#1A7267"/>
<path d="M330.724 269.062C330.096 263.022 326.878 250.233 322.875 243.8C320.938 240.461 318.71 237.288 316.217 234.315C312.057 229.326 310.252 223.843 311.416 218.373C312.28 214.257 315.772 210.863 312.502 209.217C310.409 208.166 303.097 214.282 299.421 221.45C297.171 225.831 296.53 234.113 295.405 241.293C294.28 248.472 290.84 253.626 287.348 256.285C283.855 258.945 272.88 264.567 267.726 266.555C253.847 271.962 256.15 280.421 260.166 285.182C262.899 288.437 280.402 303.632 272.932 319.258C269.78 325.856 260.179 326.856 260.244 343.748C260.244 354.968 270.996 357.412 274.751 357.779C278.505 358.146 296.099 359.223 301.135 360.16C307.505 361.35 313.169 366.998 316.714 368.479C335.027 376.077 342.601 347.332 344.184 342.773C346.8 335.252 344.184 331.592 342.601 328.68C340.613 325.134 335.276 320.93 331.796 315.725C330.214 313.357 328.552 306.304 330.057 296.896C331.301 287.667 331.525 278.337 330.724 269.062Z" fill="#1A7267"/>
<path d="M138.997 426.893C141.954 417.548 147.932 421.284 149.227 426.298C149.763 428.4 150.927 429.945 148.978 434.263C146.926 439.212 146.573 444.668 147.971 449.826C149.593 455.98 156.944 455.689 161.052 456.411C165.159 457.133 168.403 453.752 169.149 446.052C169.306 444.368 173.4 425.994 164.675 413.129C160.058 406.329 162.268 396.667 163.799 393.223C166.415 387.512 171.53 381.94 181.379 379.103C187.697 377.267 194.264 377.571 202.57 380.37C204.114 380.889 209.189 382.016 210.72 380.484C212.787 378.382 212.146 375.355 209.713 369.518C205.435 359.248 209.595 351.397 212.76 346.724C215.377 342.925 215.377 340.292 216.894 336.771C223.304 322.108 237.915 322.386 244.455 324.311C261.958 329.376 266.026 320.373 268.315 315.13C269.885 311.509 269.989 305.62 266.052 299.175C261.604 291.868 251.388 274.697 236.28 282.637C228.287 286.829 210.864 303.544 197.796 306.823C181.236 310.977 173.57 307.824 170.954 306.823C168.338 305.823 161.353 300.188 158.226 296.073C154.825 291.564 151.058 293.92 148.246 295.743C145.943 297.225 138.199 305.038 135.335 309.508C125.393 325.007 103.117 317.397 106.688 338.785C107.015 340.709 106.57 342.508 103.117 343.711C100.958 344.47 93.2666 345.825 87.4195 349.08C81.5723 352.334 79.7018 359.21 80.879 366.453C82.0563 373.696 87.1186 377.483 93.5937 376.584C100.069 375.684 99.4277 372.24 106.832 370.619C112.391 369.353 112.927 372.24 114.301 373.937C115.674 375.634 116.668 378.027 121.521 380.268C126.374 382.51 131.868 381.003 142.451 378.458C149.449 376.813 155.731 373.067 160.398 367.757C162.268 365.731 165.382 362.287 167.501 363.857C169.62 365.427 167.749 370.189 165.382 373.519C163.014 376.849 155.532 379.673 149.057 381.725C142.582 383.776 132.967 389.436 127.735 392.59C116.603 399.288 128.938 430.426 135.217 431.566C137.755 432.085 138.487 428.527 138.997 426.893Z" fill="#1A7267"/>
<path d="M342.34 379.344C337.225 373.317 334.36 374.216 331.535 374.456C328.121 374.76 321.227 376.634 315.419 373.658C309.964 370.873 302.914 364.275 294.804 364.199C267.164 363.971 267.085 357.868 259.328 359.881C255.208 360.957 251.872 368.517 242.559 374.595C227.241 384.587 220.544 382.434 217.142 382.826C216.301 382.85 215.482 383.099 214.777 383.546C214.073 383.993 213.511 384.621 213.153 385.359C212.289 386.929 213.938 390.69 214.526 393.248C216.135 400.327 213.611 403.999 211.492 406.215C209.085 408.747 208.339 411.799 210.026 414.813C211.91 418.207 216.907 419.688 222.414 420.157C227.921 420.625 229.687 419.587 235.587 420.157C242.271 420.752 251.794 424.488 251.794 424.488C255.025 425.387 261.12 429.806 264.731 433.073C268.341 436.34 268.943 436.809 270.669 438.581C274.476 442.482 279.721 441.038 282.311 439.544C286.157 437.34 291.102 432.478 294.006 430.414C300.193 426.007 300.912 433.769 301.854 436.568C303.162 440.43 306.171 441.013 308.709 440.367C312.868 439.215 317.865 437.834 320.063 439.278C322.26 440.721 322.3 441.937 324.798 446.04C327.297 450.143 332.568 448.382 333.562 447.787C334.556 447.192 344.498 443.381 347.363 441.456C350.227 439.531 357.526 436.391 360.954 432.275C363.949 428.652 365.745 424.239 366.107 419.612C366.908 414.501 365.991 409.276 363.491 404.708C360.509 399.326 347.454 385.384 342.34 379.344Z" fill="#1A7267"/>
<path d="M116.158 128.162C119.062 126.896 117.466 121.501 117.218 120.007C116.969 118.513 113.503 116.373 111.305 117.398C109.108 118.424 105.837 120.982 105.497 123.553C105.497 123.553 104.189 127.351 105.785 129.694C107.381 132.037 113.241 129.441 116.158 128.162Z" fill="#1A7267"/>
<path d="M36.5087 350.764C37.2833 351.852 38.159 352.869 39.1249 353.803C40.0798 354.677 41.2702 355.234 42.1858 356.145C42.4472 356.418 42.6918 356.706 42.9183 357.007C43.4677 357.741 43.9779 358.501 44.4619 359.286L44.5796 359.489C45.0244 360.223 45.7046 361.236 46.6595 360.755C47.4051 360.362 47.3528 359.223 47.5751 358.539C48.1638 356.715 49.9559 355.702 49.5634 353.6C48.7132 349.016 46.4109 343.71 41.5841 341.963C40.5001 341.663 39.4417 341.282 38.4185 340.823C37.4244 340.279 36.5872 338.823 35.3314 339.557C34.6432 340.2 34.2083 341.055 34.1018 341.976C34.0495 342.39 33.9056 342.789 33.6799 343.146C33.4542 343.502 33.152 343.807 32.7937 344.04C32.2574 344.306 31.4857 344.318 31.2371 344.812C31.1556 345.034 31.147 345.275 31.2126 345.502C31.2781 345.728 31.4147 345.93 31.6034 346.078C33.4064 347.466 35.0509 349.037 36.5087 350.764Z" fill="#1A7267"/>
<path d="M53.5531 395.401C53.2392 392.805 52.3366 389.918 53.5531 387.36C54.2595 385.853 52.6374 385.625 51.3294 385.549C50.921 385.509 50.5085 385.553 50.1187 385.677C49.7288 385.801 49.3703 386.004 49.0664 386.271C48.4908 386.777 48.1507 387.474 47.3266 387.664C45.8485 388.031 44.7104 386.537 43.2585 387.068C41.8065 387.6 39.6351 389.525 37.8953 388.563C36.1555 387.6 35.8285 384.878 34.2719 383.498C32.5167 382.31 30.3614 381.813 28.2416 382.105C27.1552 382.188 26.1074 382.533 25.1937 383.108C24.2799 383.683 23.529 384.47 23.0093 385.397C21.9729 386.654 21.2439 388.121 20.8771 389.69C20.8841 389.787 20.8841 389.884 20.8771 389.981C20.8468 391.445 21.3056 392.88 22.1852 394.071C23.1401 395.337 25.2984 396.173 26.528 394.742C26.9466 394.248 27.1036 393.058 27.8361 393.033C28.5686 393.007 29.0134 393.603 29.432 393.906C30.0599 394.35 30.6616 394.856 31.2371 395.35C32.3614 396.225 33.4113 397.187 34.3765 398.225C35.1634 399.386 35.6605 400.708 35.8285 402.087C36.127 403.239 36.7737 404.28 37.686 405.075C38.1094 405.396 38.602 405.621 39.1273 405.733C39.6527 405.845 40.1973 405.841 40.7208 405.721C41.898 405.556 43.1407 405.48 44.3049 405.227C45.1552 405.037 46.0708 404.239 46.9211 404.518C47.4918 404.738 48.0357 405.018 48.5431 405.354C49.3149 405.759 50.0605 406.202 50.78 406.62C51.9442 407.392 53.9194 406.975 55.0966 406.481C55.8815 406.139 56.7318 405.556 56.7579 404.645C56.7841 403.733 55.8815 402.897 55.5152 402.112C54.5133 399.984 53.8516 397.721 53.5531 395.401Z" fill="#1A7267"/>
<path d="M66.5293 362.249C67.9421 357.804 70.6106 353.803 72.0364 349.358C72.3919 348.401 72.5561 347.387 72.5204 346.37C72.5006 345.86 72.3635 345.362 72.119 344.911C71.8746 344.459 71.5291 344.067 71.1076 343.761C70.5596 343.467 69.9964 343.201 69.4202 342.963C68.6985 342.499 68.0982 341.879 67.6669 341.151C67.2355 340.424 66.9849 339.609 66.9348 338.772C66.7255 337.1 66.9348 335.416 66.8694 333.707C66.7517 331.503 65.9669 329.135 63.4815 328.35C62.8323 328.146 62.1452 328.082 61.4676 328.16C60.79 328.239 60.1381 328.459 59.5572 328.806C57.1765 330.199 56.5355 332.871 56.287 335.366C56.2537 337.454 55.8738 339.523 55.162 341.494C54.2856 343.407 52.5459 345.04 52.4674 347.117C52.5303 348.42 52.8176 349.704 53.3176 350.916C54.2071 353.879 54.0109 357.045 54.338 360.109C54.9475 366.211 57.9084 371.867 62.6312 375.95C62.8217 376.107 63.0486 376.216 63.2924 376.269C63.5362 376.322 63.7896 376.317 64.0309 376.254C64.3747 376.173 64.6807 375.983 64.9009 375.715C65.1212 375.447 65.243 375.115 65.2474 374.773C65.3259 370.379 65.1558 366.504 66.5293 362.249Z" fill="#1A7267"/>
<path d="M51.3294 378.47C51.5325 378.14 51.645 377.765 51.6564 377.381C51.6564 376.457 50.6361 375.887 49.8774 375.304C45.6784 372.063 47.2612 365.022 43.5724 361.236C42.5256 360.216 41.183 359.528 39.7229 359.263C38.2628 358.998 36.754 359.17 35.3969 359.754C34.062 360.377 32.9335 361.348 32.1384 362.559C31.3433 363.769 30.9134 365.171 30.897 366.605C31.0938 368.815 31.5908 370.991 32.3752 373.076C33.0685 375.608 33.2516 378.344 34.3242 380.788C35.3969 383.231 37.7122 385.447 40.4461 385.333C42.0357 385.155 43.5524 384.588 44.8543 383.687L48.3862 381.611L48.2946 381.99C49.5741 381.06 50.613 379.855 51.3294 378.47Z" fill="#1A7267"/>
<path d="M50.5576 409.672C48.53 409.786 46.7903 411.204 44.7627 411.432C44.1017 411.421 43.4434 411.515 42.8137 411.71C42.4806 411.887 42.1911 412.131 41.9652 412.426C41.7394 412.721 41.5825 413.06 41.5056 413.42C41.3255 414.206 41.3509 415.023 41.5793 415.796C41.8077 416.57 42.232 417.277 42.8137 417.852C43.9892 418.991 45.4494 419.815 47.0519 420.245C47.23 420.279 47.3939 420.362 47.5228 420.486C47.7002 420.729 47.9218 420.94 48.1769 421.106C48.2827 421.142 48.398 421.142 48.5039 421.106C48.7786 421.03 49.0009 420.726 49.1841 420.537C49.5562 420.143 49.8931 419.719 50.1913 419.27C50.4212 418.901 50.6308 418.521 50.8192 418.131C50.9108 417.941 50.9892 417.751 51.0677 417.548C51.1785 417.368 51.258 417.171 51.3032 416.966C51.8963 415.284 52.3341 413.555 52.6113 411.799V411.723C52.7161 411.341 52.7161 410.94 52.6113 410.558C52.4113 410.218 52.1042 409.948 51.7347 409.789C51.3653 409.629 50.9528 409.588 50.5576 409.672Z" fill="#1A7267"/>
<path d="M23.611 316.194C25.7548 315.125 27.4946 313.428 28.5817 311.344C28.6733 311.154 28.7648 310.964 28.8433 310.774C29.3395 309.828 29.4783 308.744 29.2358 307.71C28.8187 306.761 28.1781 305.919 27.3652 305.253C25.2506 303.11 23.4862 300.668 22.1328 298.01C21.7157 297.046 21.1561 296.146 20.4716 295.338C20.1268 294.938 19.6837 294.629 19.1831 294.439C18.6825 294.248 18.1404 294.183 17.6069 294.249C16.785 294.48 16.0609 294.959 15.5401 295.617C14.0959 297.337 13.0325 299.326 12.416 301.461C11.7994 303.596 11.6428 305.83 11.9559 308.026C12.1205 309.825 12.6448 311.575 13.4995 313.18C14.3574 314.784 15.7363 316.07 17.4237 316.84C18.3523 317.252 19.3753 317.424 20.3932 317.34C21.4111 317.256 22.389 316.918 23.2316 316.358L23.611 316.194Z" fill="#1A7267"/>
<path d="M79.3878 419.144C81.7816 420.726 82.331 424.032 84.5417 425.842C85.7343 426.715 87.1242 427.301 88.5968 427.552C89.8764 427.878 91.1988 428.018 92.521 427.97C93.8574 427.914 95.1387 427.439 96.1706 426.615C97.2821 425.62 97.9876 424.272 98.1589 422.816C98.3756 420.989 98.2425 419.139 97.7665 417.358L97.6749 416.763C96.6007 413.421 95.9248 409.971 95.6604 406.481C95.6024 405.463 95.3073 404.472 94.7971 403.581C94.1008 402.707 93.2055 402.001 92.1809 401.517C91.2992 400.873 90.2243 400.526 89.12 400.529C87.6811 400.694 86.687 401.998 85.9675 403.214C85.2481 404.429 84.4632 405.746 83.0766 406.253C82.0563 406.595 80.8791 406.367 79.9111 406.823C79.4269 407.112 79.0166 407.504 78.7109 407.969C78.4051 408.434 78.2117 408.96 78.1452 409.507C78.0218 410.602 77.8119 411.685 77.5173 412.749C77.2556 413.445 76.8371 414.015 76.5362 414.762C76.1884 415.439 76.1274 416.221 76.3662 416.94C76.8894 418.042 78.3283 418.434 79.3878 419.144Z" fill="#1A7267"/>
<path d="M108.31 403.758C106.418 403.501 104.49 403.769 102.75 404.531C101.24 404.986 99.9469 405.947 99.1007 407.24C98.6919 407.999 98.5539 408.867 98.7083 409.71C99.0107 410.857 99.6302 411.904 100.5 412.736C101.442 413.736 102.476 414.636 103.444 415.611C104.298 416.344 105.035 417.198 105.628 418.143L105.864 418.637C106.204 419.296 107.263 418.32 107.564 418.042C109.766 416.01 111.373 413.45 112.221 410.621C112.633 409.5 112.71 408.289 112.443 407.126C112.136 406.254 111.589 405.479 110.86 404.886C110.132 404.292 109.25 403.902 108.31 403.758Z" fill="#1A7267"/>
<path d="M113.699 426.957C113.78 426.394 113.722 425.821 113.532 425.284C113.341 424.748 113.021 424.262 112.6 423.867C112.396 423.619 112.143 423.412 111.855 423.26C111.568 423.108 111.252 423.013 110.926 422.98C109.879 422.98 109.147 423.918 108.427 424.639C107.041 426.007 105.144 426.855 103.941 428.438C102.995 429.66 102.586 431.194 102.803 432.706C102.837 433.195 102.996 433.668 103.266 434.083C103.535 434.499 103.906 434.843 104.346 435.086C104.767 435.245 105.234 435.245 105.654 435.086C105.837 435.086 106.151 434.858 106.374 434.909C106.596 434.96 106.635 435.34 106.688 435.529C106.748 435.819 106.904 436.081 107.132 436.277C107.521 436.543 107.969 436.717 108.44 436.783C109.116 436.89 109.805 436.89 110.481 436.783C111.331 436.656 112.325 436.327 112.535 435.517C112.572 435.239 112.548 434.956 112.465 434.688C112.381 434.419 112.24 434.171 112.051 433.959C111.669 433.539 111.356 433.065 111.122 432.554C111.032 432.034 111.071 431.5 111.237 430.998C111.403 430.496 111.691 430.039 112.077 429.667C112.824 428.895 113.379 427.968 113.699 426.957Z" fill="#1A7267"/>
<path d="M78.119 443.887C78.7123 443.026 79.0681 442.032 79.1524 441C79.277 440.487 79.2265 439.95 79.0085 439.468C78.8175 439.2 78.5711 438.975 78.2851 438.805C77.9991 438.635 77.6797 438.524 77.3472 438.48C76.1823 438.208 74.9743 438.157 73.7892 438.328C73.4688 438.34 73.1558 438.425 72.8761 438.577C72.5964 438.729 72.358 438.943 72.1803 439.202C71.9056 439.771 72.1803 440.544 71.6832 440.987C71.5251 441.114 71.3335 441.196 71.1301 441.222C70.9266 441.249 70.7194 441.22 70.5321 441.139C70.3268 441.048 70.1336 440.933 69.9565 440.797C69.7916 440.693 69.653 440.555 69.551 440.392C69.5035 440.302 69.4809 440.202 69.4856 440.101C69.4856 439.835 69.5641 439.544 69.4856 439.265C69.4367 438.928 69.2968 438.609 69.0801 438.341C68.8933 438.083 68.6248 437.892 68.3155 437.796C68.0062 437.7 67.673 437.705 67.3665 437.809C67.0624 438.004 66.8086 438.264 66.6249 438.569C66.4412 438.874 66.3324 439.217 66.3069 439.569L65.7183 442.101C65.5784 442.571 65.508 443.057 65.509 443.545C65.5056 443.792 65.5537 444.037 65.6503 444.265C65.747 444.494 65.8902 444.701 66.0715 444.875C66.5244 445.216 67.0962 445.375 67.6674 445.318C68.9429 445.123 70.1872 444.77 71.3692 444.267C71.8981 444.071 72.4702 444.01 73.0305 444.09C73.8415 444.242 74.4825 444.862 75.2804 445.065C75.8205 445.154 76.3759 445.091 76.8796 444.882C77.3833 444.673 77.8138 444.328 78.119 443.887Z" fill="#1A7267"/>
<path d="M93.0312 469.871C94.0806 469.552 95.0344 468.991 95.8111 468.237C96.5879 467.482 97.1645 466.557 97.4917 465.541C97.9627 464.072 97.8842 462.426 98.669 461.083C99.6501 459.399 101.874 458.399 102.188 456.487C102.224 455.658 102.15 454.828 101.965 454.017C101.98 452.188 102.177 450.365 102.554 448.572C102.698 446.749 102.149 444.609 100.422 443.849C98.1458 442.849 95.1895 444.824 93.0835 443.545C92.0501 442.937 91.54 441.696 90.4673 441.114C89.8019 440.795 89.0642 440.642 88.3221 440.671C86.9213 440.561 85.5196 440.871 84.3062 441.557C82.2918 442.823 81.6116 445.356 79.7672 446.888C79.1785 447.369 78.4591 447.724 77.9097 448.243C77.609 448.479 77.3755 448.786 77.2313 449.134C77.0871 449.482 77.0369 449.859 77.0856 450.231C77.187 450.566 77.3785 450.87 77.6405 451.11C77.9024 451.35 78.2255 451.519 78.5768 451.599C79.276 451.753 79.9976 451.787 80.709 451.7L84.0185 451.472C84.6927 451.384 85.3784 451.432 86.0329 451.611C86.3547 451.706 86.64 451.892 86.8521 452.144C87.0642 452.397 87.1935 452.705 87.2233 453.03C87.1962 453.393 87.0796 453.745 86.8832 454.055C86.8832 454.549 86.1637 455.448 85.9413 455.904L85.0257 457.74C84.4501 458.855 82.7104 460.045 82.3179 461.349C82.2244 461.656 82.215 461.98 82.2907 462.291C82.3664 462.602 82.5246 462.888 82.7496 463.122C83.1871 463.556 83.6794 463.934 84.2147 464.249C84.6171 464.488 84.9658 464.803 85.24 465.175C85.5141 465.547 85.7082 465.968 85.8105 466.414C85.8932 467.248 86.2509 468.034 86.8308 468.656C87.6869 469.327 88.6977 469.787 89.7771 469.999C90.8566 470.211 91.9729 470.167 93.0312 469.871Z" fill="#1A7267"/>
<path d="M114.588 468.238C114.01 467.993 113.499 467.62 113.097 467.149C112.907 466.8 112.775 466.424 112.705 466.035C112.528 465.395 112.235 464.791 111.841 464.249C111.405 463.814 111.051 463.308 110.795 462.755V462.35C110.625 460.817 113.189 459.906 114.248 459.235C115.316 458.63 116.194 457.754 116.786 456.702C117.063 456.166 117.168 455.563 117.086 454.969C117.005 454.375 116.741 453.818 116.328 453.372C115.828 453.009 115.247 452.763 114.632 452.653C114.017 452.543 113.385 452.572 112.783 452.739C111.876 452.831 111.034 453.241 110.416 453.891C110.096 454.407 109.825 454.949 109.605 455.512C109.216 456.229 108.589 456.8 107.826 457.133C107.054 457.474 106.177 457.563 105.393 457.867C104.982 457.98 104.616 458.21 104.341 458.525C104.067 458.841 103.895 459.229 103.849 459.64C103.849 460.336 104.412 460.906 104.477 461.653C104.459 462.257 104.249 462.841 103.875 463.325C103.017 464.671 102.069 465.961 101.037 467.187C100.513 467.795 99.9771 468.39 99.4277 468.972C98.9699 469.441 97.4394 470.505 98.3682 471.226C98.5602 471.352 98.7723 471.446 98.996 471.505C100.819 472.022 102.575 472.74 104.228 473.645C105.576 474.58 107.062 475.31 108.637 475.81C110.978 476.317 113.398 475.393 115.543 474.354C115.954 474.186 116.324 473.935 116.629 473.62C116.841 473.315 116.98 472.967 117.034 472.603C117.089 472.239 117.057 471.868 116.943 471.518C116.622 470.173 115.779 468.998 114.588 468.238Z" fill="#1A7267"/>
<path d="M98.6559 480.724C96.8508 480.052 94.7317 479.457 93.1751 481.04C92.9626 481.277 92.7783 481.536 92.6257 481.813C92.0421 483.204 91.8481 484.72 92.0632 486.207C92.1678 487.903 92.2594 489.588 92.351 491.272C92.4425 491.716 92.4288 492.175 92.311 492.614C92.1932 493.052 91.9743 493.459 91.6708 493.804C91.383 494.032 91.0036 494.159 90.7028 494.387C90.3268 494.745 90.0643 495.2 89.9461 495.698C89.8279 496.196 89.859 496.717 90.0357 497.198C90.4069 498.156 90.6913 499.143 90.8859 500.149C91.0167 501.959 89.761 503.618 89.6563 505.429C89.5517 507.442 90.8598 509.228 92.1024 510.874C92.4391 511.382 92.8854 511.814 93.4105 512.14C94.7186 512.837 96.3276 512.14 97.7795 512.292C98.4042 512.487 99.0598 512.573 99.7155 512.546C99.8456 512.508 99.9663 512.445 100.07 512.36C100.173 512.275 100.258 512.17 100.317 512.052C100.591 511.316 100.632 510.518 100.435 509.76C100.187 508.296 100.263 506.799 100.657 505.366C101.026 504.497 101.345 503.609 101.612 502.706C102.031 500.655 100.906 498.629 100.605 496.552C100.147 493.298 101.73 490.119 102.449 486.903C102.854 485.623 102.756 484.243 102.175 483.028C101.304 481.898 100.064 481.086 98.6559 480.724Z" fill="#1A7267"/>
<path d="M62.3827 271.937C62.3855 271.524 62.2869 271.116 62.0949 270.747C60.1589 266.277 55.9469 262.984 54.2464 258.425C53.6185 256.729 53.37 254.905 52.6374 253.259C51.7516 251.284 50.2277 249.64 48.2946 248.574C46.9602 247.903 45.5516 247.38 44.0956 247.016C40.9369 245.968 37.6616 245.283 34.3373 244.977C30.6881 244.82 27.0573 245.563 23.7855 247.135C20.5138 248.708 17.7081 251.059 15.6317 253.968C15.3081 254.379 15.0724 254.848 14.9384 255.348C14.5198 257.185 16.5342 258.691 18.4179 259.147C19.6187 259.273 20.7486 259.761 21.6489 260.54C22.1987 261.388 22.4081 262.402 22.2375 263.389C22.0803 264.351 22.1794 265.336 22.5253 266.251C22.6198 266.471 22.7599 266.67 22.9368 266.836C23.1138 267.002 23.3239 267.131 23.5543 267.215C23.7846 267.299 24.0303 267.337 24.2763 267.326C24.5222 267.315 24.7632 267.255 24.9845 267.15C25.4799 266.664 25.8048 266.04 25.9132 265.365C26.1003 264.792 26.407 264.263 26.8143 263.81C27.2216 263.357 27.7208 262.989 28.2809 262.731C28.8476 262.485 29.4735 262.394 30.0897 262.47C30.706 262.546 31.2886 262.785 31.7734 263.161C32.7153 263.947 33.2516 265.352 34.4812 265.504C35.3838 265.605 36.1555 264.947 36.9011 264.428C38.0616 263.605 39.406 263.058 40.8254 262.832L40.9562 263.111C41.2578 263.392 41.4556 263.761 41.5195 264.161C41.5833 264.561 41.5095 264.971 41.3094 265.327C40.8826 266.025 40.344 266.654 39.7135 267.188C38.5975 268.391 37.771 269.818 37.2936 271.367C37.1171 271.733 37.0505 272.14 37.1014 272.54C37.1523 272.941 37.3186 273.32 37.5814 273.634C37.877 273.853 38.2223 274 38.5886 274.064C45.5117 275.768 52.7649 275.768 59.688 274.064C60.8915 273.748 62.3173 273.14 62.3827 271.937Z" fill="#1A7267"/>
<path d="M20.1707 269.62C20.4737 269.394 20.7221 269.108 20.8984 268.779C21.0747 268.451 21.1745 268.09 21.191 267.72C21.0982 267.243 20.9117 266.787 20.6416 266.378C20.223 265.58 19.9614 264.694 19.4774 263.934C18.9123 263.176 18.1967 262.534 17.3723 262.047C16.548 261.56 15.6316 261.237 14.6767 261.097C12.7931 260.73 10.844 260.768 8.93423 260.528C7.21702 260.164 5.45794 260.019 3.70188 260.097C2.8272 260.157 1.99543 260.487 1.32901 261.038C0.66259 261.59 0.196726 262.334 -3.90645e-06 263.161C-0.00543844 263.912 0.204478 264.649 0.606353 265.291C1.00823 265.932 1.58627 266.453 2.27607 266.796C3.6563 267.443 5.08116 267.998 6.54043 268.455C8.87038 269.331 11.1498 270.329 13.3686 271.443C14.5709 271.668 15.8107 271.621 16.9909 271.305C18.171 270.988 19.2594 270.411 20.1707 269.62Z" fill="#1A7267"/>
<path d="M73.7631 255.792C74.7572 254.779 76.3007 254.525 77.4257 253.601C78.3225 252.907 78.9082 251.904 79.0608 250.802C79.3093 248.865 78.1713 246.877 78.7207 244.99C79.1599 244.001 79.6896 243.052 80.3035 242.154C80.6166 241.703 80.7716 241.166 80.7457 240.624C80.7198 240.081 80.5143 239.561 80.1596 239.14C79.1 238.177 77.3995 238.899 76.1699 239.646L71.814 242.318C71.5087 242.532 71.1615 242.683 70.7937 242.761C70.2983 242.793 69.8037 242.688 69.3679 242.458L64.8942 240.596C63.7575 240.065 62.5449 239.702 61.297 239.52C60.6728 239.435 60.037 239.485 59.4354 239.667C58.8337 239.849 58.2812 240.158 57.8175 240.571C56.0908 242.306 56.9934 245.205 56.1693 247.472C55.7435 248.293 55.3721 249.138 55.0574 250.005C54.9562 250.831 55.0535 251.669 55.3417 252.453C55.6298 253.237 56.1011 253.946 56.7187 254.525C57.9396 255.639 59.0559 256.855 60.0543 258.16C60.754 259.507 61.3106 260.92 61.7156 262.376C62.7646 265.262 64.5671 267.836 66.9479 269.847C67.2613 270.151 67.655 270.366 68.086 270.468C68.3056 270.511 68.5341 270.473 68.7257 270.36C68.9174 270.247 69.0579 270.069 69.1193 269.86L68.7531 270.113C70.3359 267.581 71.971 264.871 72.3111 261.895C72.5727 259.742 72.2457 257.311 73.7631 255.792Z" fill="#1A7267"/>
<path d="M62.108 222.995C62.6112 223.256 63.1723 223.395 63.7431 223.4C64.5036 223.413 65.2605 223.297 65.9799 223.058L69.2371 222.032C70.1888 221.786 71.079 221.355 71.8533 220.766C72.6773 220.057 74.3779 220.019 74.8619 218.968C75.0559 218.345 74.995 217.674 74.6918 217.094C74.2863 216.043 73.8939 214.979 73.5014 213.928C73.3617 213.406 73.0605 212.937 72.6381 212.586C72.2049 212.363 71.7131 212.271 71.2254 212.32C69.0525 212.516 66.9226 213.029 64.9073 213.839C63.3928 214.208 62.0264 215.006 60.983 216.131C60.54 216.816 60.267 217.591 60.1853 218.395C60.1036 219.199 60.2154 220.011 60.5121 220.766C60.7427 221.673 61.3109 222.467 62.108 222.995Z" fill="#1A7267"/>
<path d="M42.1858 223.463C41.8478 223.921 41.6444 224.459 41.5972 225.021C41.6308 225.357 41.7424 225.683 41.9235 225.972C42.1047 226.261 42.3508 226.507 42.6437 226.692C43.1808 227.043 43.7846 227.288 44.42 227.412C45.0554 227.536 45.7098 227.536 46.3455 227.414C47.1622 227.289 47.9393 226.987 48.6187 226.531C49.2982 226.075 49.8626 225.477 50.2698 224.78C50.6204 224.156 50.816 223.461 50.841 222.751C50.866 222.041 50.7197 221.336 50.4137 220.69C50.2591 220.376 50.0138 220.112 49.7073 219.93C49.2953 219.637 48.7921 219.49 48.2815 219.512C47.7714 219.512 47.3266 219.601 46.7118 219.626C45.9305 219.621 45.1653 219.841 44.5142 220.259C43.9736 220.712 43.5293 221.263 43.2061 221.88L42.1858 223.463Z" fill="#1A7267"/>
</g>
<defs>
<clipPath id="clip0_47_566">
<rect width="438" height="611" fill="white"/>
</clipPath>
</defs>
</svg>
